<?xml version="1.0" encoding="UTF-8" standalone="no"?>
<!DOCTYPE svg PUBLIC "-//W3C//DTD SVG 1.1//EN"
 "http://www.w3.org/Graphics/SVG/1.1/DTD/svg11.dtd">
<!-- Generated by graphviz version 2.40.1 (20161225.0304)
 -->
<!-- Title: %3 Pages: 1 -->
<svg width="199pt" height="170pt"
 viewBox="0.00 0.00 199.27 170.12" xmlns="http://www.w3.org/2000/svg" xmlns:xlink="http://www.w3.org/1999/xlink">
<g id="graph0" class="graph" transform="scale(1 1) rotate(0) translate(4 166.1249)">
<title>%3</title>
<polygon fill="#ffffff" stroke="transparent" points="-4,4 -4,-166.1249 195.273,-166.1249 195.273,4 -4,4"/>
<!-- &#45;1 -->
<g id="node1" class="node">
<title>&#45;1</title>
<polygon fill="#d3d3d3" stroke="#000000" points="173.2132,-162.1249 149.2132,-162.1249 149.2132,-144.1249 173.2132,-144.1249 173.2132,-162.1249"/>
<text text-anchor="middle" x="161.2132" y="-150.9249" font-family="Times,serif" font-size="9.00" fill="#000000">&#45;1</text>
</g>
<!-- 0 -->
<g id="node3" class="node">
<title>0</title>
<ellipse fill="#add8e6" stroke="#000000" cx="70.2132" cy="-14.8492" rx="14.7" ry="14.7"/>
<text text-anchor="middle" x="70.2132" y="-12.6492" font-family="Times,serif" font-size="9.00" fill="#000000">0</text>
</g>
<!-- &#45;1&#45;&gt;0 -->
<g id="edge1" class="edge">
<title>&#45;1&#45;&gt;0</title>
<path fill="none" stroke="#ff0000" stroke-width=".2772" d="M168.2422,-143.9506C180.1845,-127.1577 201.6188,-90.8904 185.2132,-65.6985 165.3365,-35.1765 122.518,-22.8402 95.1066,-17.9497"/>
<polygon fill="#ff0000" stroke="#ff0000" stroke-width=".2772" points="95.5179,-14.4714 85.0947,-16.3706 94.4273,-21.3859 95.5179,-14.4714"/>
</g>
<!-- 1 -->
<g id="node4" class="node">
<title>1</title>
<ellipse fill="#add8e6" stroke="#000000" cx="161.2132" cy="-86.9117" rx="14.7" ry="14.7"/>
<text text-anchor="middle" x="161.2132" y="-84.7117" font-family="Times,serif" font-size="9.00" fill="#000000">1</text>
</g>
<!-- &#45;1&#45;&gt;1 -->
<g id="edge2" class="edge">
<title>&#45;1&#45;&gt;1</title>
<path fill="none" stroke="#00ff00" stroke-width=".3177" stroke-dasharray="1,5" d="M161.2132,-143.9182C161.2132,-135.6782 161.2132,-123.2084 161.2132,-112.0307"/>
<polygon fill="#00ff00" stroke="#00ff00" stroke-width=".3177" points="164.7133,-111.8899 161.2132,-101.8899 157.7133,-111.89 164.7133,-111.8899"/>
</g>
<!-- 2 -->
<g id="node5" class="node">
<title>2</title>
<ellipse fill="#add8e6" stroke="#000000" cx="113.2132" cy="-86.9117" rx="14.7" ry="14.7"/>
<text text-anchor="middle" x="113.2132" y="-84.7117" font-family="Times,serif" font-size="9.00" fill="#000000">2</text>
</g>
<!-- &#45;1&#45;&gt;2 -->
<g id="edge3" class="edge">
<title>&#45;1&#45;&gt;2</title>
<path fill="none" stroke="#ff0000" stroke-width=".2997" d="M154.539,-143.9182C147.74,-134.5394 136.9688,-119.6811 128.1275,-107.485"/>
<polygon fill="#ff0000" stroke="#ff0000" stroke-width=".2997" points="130.8182,-105.2335 122.1151,-99.1914 125.1507,-109.342 130.8182,-105.2335"/>
</g>
<!-- &#45;2 -->
<g id="node2" class="node">
<title>&#45;2</title>
<polygon fill="#d3d3d3" stroke="#000000" points="104.2132,-162.1249 80.2132,-162.1249 80.2132,-144.1249 104.2132,-144.1249 104.2132,-162.1249"/>
<text text-anchor="middle" x="92.2132" y="-150.9249" font-family="Times,serif" font-size="9.00" fill="#000000">&#45;2</text>
</g>
<!-- &#45;2&#45;&gt;0 -->
<g id="edge4" class="edge">
<title>&#45;2&#45;&gt;0</title>
<path fill="none" stroke="#00ff00" stroke-width=".3771" d="M90.7697,-144.0522C87.4519,-123.1987 79.1859,-71.2451 74.205,-39.9389"/>
<polygon fill="#00ff00" stroke="#00ff00" stroke-width=".3771" points="77.6216,-39.1373 72.5937,-29.8115 70.7085,-40.2372 77.6216,-39.1373"/>
</g>
<!-- &#45;2&#45;&gt;1 -->
<g id="edge5" class="edge">
<title>&#45;2&#45;&gt;1</title>
<path fill="none" stroke="#ff0000" stroke-width="1.0575" d="M101.8074,-143.9182C112.4558,-133.6999 129.8822,-116.9773 143.114,-104.2799"/>
<polygon fill="#ff0000" stroke="#ff0000" stroke-width="1.0575" points="145.5451,-106.7978 150.337,-97.3486 140.6984,-101.7471 145.5451,-106.7978"/>
</g>
<!-- &#45;2&#45;&gt;2 -->
<g id="edge6" class="edge">
<title>&#45;2&#45;&gt;2</title>
<path fill="none" stroke="#00ff00" stroke-width=".2298" d="M95.1332,-143.9182C97.8527,-135.3434 102.025,-122.1882 105.6765,-110.675"/>
<polygon fill="#00ff00" stroke="#00ff00" stroke-width=".2298" points="109.0147,-111.7266 108.7017,-101.1364 102.3423,-109.6104 109.0147,-111.7266"/>
</g>
<!-- 225 -->
<g id="node6" class="node">
<title>225</title>
<ellipse fill="#ffffff" stroke="#000000" cx="21.2132" cy="-86.9117" rx="21.4286" ry="21.4286"/>
<text text-anchor="middle" x="21.2132" y="-84.7117" font-family="Times,serif" font-size="9.00" fill="#000000">225</text>
</g>
<!-- &#45;2&#45;&gt;225 -->
<g id="edge7" class="edge">
<title>&#45;2&#45;&gt;225</title>
<path fill="none" stroke="#00ff00" stroke-width=".3" d="M82.341,-143.9182C72.5591,-134.7959 57.2187,-120.4897 44.3531,-108.4915"/>
<polygon fill="#00ff00" stroke="#00ff00" stroke-width=".3" points="46.4345,-105.6468 36.7341,-101.3862 41.6604,-110.7661 46.4345,-105.6468"/>
</g>
<!-- 225&#45;&gt;0 -->
<g id="edge8" class="edge">
<title>225&#45;&gt;0</title>
<path fill="none" stroke="#00ff00" stroke-width=".3344" d="M33.3256,-69.0985C40.2335,-58.9392 48.9246,-46.1576 56.1352,-35.5532"/>
<polygon fill="#00ff00" stroke="#00ff00" stroke-width=".3344" points="59.0437,-37.5003 61.7724,-27.2628 53.2551,-33.5642 59.0437,-37.5003"/>
</g>
</g>
</svg>
