<?xml version="1.0" encoding="UTF-8" standalone="no"?>
<!DOCTYPE svg PUBLIC "-//W3C//DTD SVG 1.1//EN"
 "http://www.w3.org/Graphics/SVG/1.1/DTD/svg11.dtd">
<!-- Generated by graphviz version 2.40.1 (20161225.0304)
 -->
<!-- Title: %3 Pages: 1 -->
<svg width="270pt" height="351pt"
 viewBox="0.00 0.00 270.38 351.40" xmlns="http://www.w3.org/2000/svg" xmlns:xlink="http://www.w3.org/1999/xlink">
<g id="graph0" class="graph" transform="scale(1 1) rotate(0) translate(4 347.4041)">
<title>%3</title>
<polygon fill="#ffffff" stroke="transparent" points="-4,4 -4,-347.4041 266.3848,-347.4041 266.3848,4 -4,4"/>
<!-- &#45;1 -->
<g id="node1" class="node">
<title>&#45;1</title>
<polygon fill="#d3d3d3" stroke="#000000" points="24,-95.9117 0,-95.9117 0,-77.9117 24,-77.9117 24,-95.9117"/>
<text text-anchor="middle" x="12" y="-84.7117" font-family="Times,serif" font-size="9.00" fill="#000000">&#45;1</text>
</g>
<!-- 0 -->
<g id="node3" class="node">
<title>0</title>
<ellipse fill="#add8e6" stroke="#000000" cx="76" cy="-14.8492" rx="14.7" ry="14.7"/>
<text text-anchor="middle" x="76" y="-12.6492" font-family="Times,serif" font-size="9.00" fill="#000000">0</text>
</g>
<!-- &#45;1&#45;&gt;0 -->
<g id="edge2" class="edge">
<title>&#45;1&#45;&gt;0</title>
<path fill="none" stroke="#00ff00" stroke-width=".4001" d="M20.1056,-77.7849C29.8905,-66.7674 46.6004,-47.9525 59.2072,-33.7575"/>
<polygon fill="#00ff00" stroke="#00ff00" stroke-width=".4001" points="62.0489,-35.8286 66.0724,-26.0275 56.815,-31.1803 62.0489,-35.8286"/>
</g>
<!-- &#45;2 -->
<g id="node2" class="node">
<title>&#45;2</title>
<polygon fill="#d3d3d3" stroke="#000000" points="230,-331.1909 206,-331.1909 206,-313.1909 230,-313.1909 230,-331.1909"/>
<text text-anchor="middle" x="218" y="-319.9909" font-family="Times,serif" font-size="9.00" fill="#000000">&#45;2</text>
</g>
<!-- 2 -->
<g id="node5" class="node">
<title>2</title>
<ellipse fill="#add8e6" stroke="#000000" cx="193" cy="-243.7645" rx="14.7" ry="14.7"/>
<text text-anchor="middle" x="193" y="-241.5645" font-family="Times,serif" font-size="9.00" fill="#000000">2</text>
</g>
<!-- &#45;2&#45;&gt;2 -->
<g id="edge4" class="edge">
<title>&#45;2&#45;&gt;2</title>
<path fill="none" stroke="#00ff00" stroke-width=".6762" d="M215.034,-312.8864C211.524,-301.8754 205.5448,-283.1182 200.6999,-267.9196"/>
<polygon fill="#00ff00" stroke="#00ff00" stroke-width=".6762" points="203.9432,-266.5695 197.5713,-258.1049 197.2738,-268.6956 203.9432,-266.5695"/>
</g>
<!-- 19 -->
<g id="node11" class="node">
<title>19</title>
<ellipse fill="#ffffff" stroke="#000000" cx="244" cy="-243.7645" rx="18.2703" ry="18.2703"/>
<text text-anchor="middle" x="244" y="-241.5645" font-family="Times,serif" font-size="9.00" fill="#000000">19</text>
</g>
<!-- &#45;2&#45;&gt;19 -->
<g id="edge10" class="edge">
<title>&#45;2&#45;&gt;19</title>
<path fill="none" stroke="#ff0000" stroke-width=".4565" d="M221.0846,-312.8864C224.4946,-302.6007 230.1454,-285.5556 234.9821,-270.966"/>
<polygon fill="#ff0000" stroke="#ff0000" stroke-width=".4565" points="238.3384,-271.9644 238.1631,-261.371 231.694,-269.7616 238.3384,-271.9644"/>
</g>
<!-- 1 -->
<g id="node4" class="node">
<title>1</title>
<ellipse fill="#add8e6" stroke="#000000" cx="141" cy="-322.1909" rx="14.7" ry="14.7"/>
<text text-anchor="middle" x="141" y="-319.9909" font-family="Times,serif" font-size="9.00" fill="#000000">1</text>
</g>
<!-- 549 -->
<g id="node8" class="node">
<title>549</title>
<ellipse fill="#ffffff" stroke="#000000" cx="139" cy="-243.7645" rx="21.4286" ry="21.4286"/>
<text text-anchor="middle" x="139" y="-241.5645" font-family="Times,serif" font-size="9.00" fill="#000000">549</text>
</g>
<!-- 1&#45;&gt;549 -->
<g id="edge9" class="edge">
<title>1&#45;&gt;549</title>
<path fill="none" stroke="#00ff00" stroke-width=".4515" d="M140.6144,-307.0695C140.3838,-298.0295 140.0822,-286.2006 139.8021,-275.2176"/>
<polygon fill="#00ff00" stroke="#00ff00" stroke-width=".4515" points="143.2971,-274.9729 139.5432,-265.0654 136.2994,-275.1514 143.2971,-274.9729"/>
</g>
<!-- 418 -->
<g id="node6" class="node">
<title>418</title>
<ellipse fill="#ffffff" stroke="#000000" cx="101" cy="-165.3381" rx="21.4286" ry="21.4286"/>
<text text-anchor="middle" x="101" y="-163.1381" font-family="Times,serif" font-size="9.00" fill="#000000">418</text>
</g>
<!-- 367 -->
<g id="node9" class="node">
<title>367</title>
<ellipse fill="#ffffff" stroke="#000000" cx="101" cy="-86.9117" rx="21.4286" ry="21.4286"/>
<text text-anchor="middle" x="101" y="-84.7117" font-family="Times,serif" font-size="9.00" fill="#000000">367</text>
</g>
<!-- 418&#45;&gt;367 -->
<g id="edge6" class="edge">
<title>418&#45;&gt;367</title>
<path fill="none" stroke="#ff0000" stroke-width=".4375" stroke-dasharray="1,5" d="M101,-143.9077C101,-136.0404 101,-126.9616 101,-118.3952"/>
<polygon fill="#ff0000" stroke="#ff0000" stroke-width=".4375" points="104.5001,-118.3161 101,-108.3161 97.5001,-118.3162 104.5001,-118.3161"/>
</g>
<!-- 165 -->
<g id="node7" class="node">
<title>165</title>
<ellipse fill="#ffffff" stroke="#000000" cx="87" cy="-322.1909" rx="21.4286" ry="21.4286"/>
<text text-anchor="middle" x="87" y="-319.9909" font-family="Times,serif" font-size="9.00" fill="#000000">165</text>
</g>
<!-- 165&#45;&gt;0 -->
<g id="edge1" class="edge">
<title>165&#45;&gt;0</title>
<path fill="none" stroke="#ff0000" stroke-width=".6675" stroke-dasharray="1,5" d="M83.7355,-301.1139C79.7931,-274.4998 73.393,-227.2653 71,-186.5513 67.8484,-132.9315 68.3688,-119.3464 71,-65.6985 71.4109,-57.3203 72.2005,-48.1936 73.0329,-40.0144"/>
<polygon fill="#ff0000" stroke="#ff0000" stroke-width=".6675" points="76.5257,-40.2696 74.1236,-29.9506 69.5664,-39.5153 76.5257,-40.2696"/>
</g>
<!-- 165&#45;&gt;418 -->
<g id="edge5" class="edge">
<title>165&#45;&gt;418</title>
<path fill="none" stroke="#00ff00" stroke-width=".1474" stroke-dasharray="1,5" d="M88.8881,-301.037C91.2783,-274.258 95.4169,-227.8904 98.1816,-196.9149"/>
<polygon fill="#00ff00" stroke="#00ff00" stroke-width=".1474" points="101.6941,-196.9294 99.0971,-186.6578 94.7218,-196.307 101.6941,-196.9294"/>
</g>
<!-- 165&#45;&gt;549 -->
<g id="edge11" class="edge">
<title>165&#45;&gt;549</title>
<path fill="none" stroke="#ff0000" stroke-width=".2484" d="M98.7996,-304.3947C105.5146,-294.2672 114.0526,-281.3902 121.5314,-270.1107"/>
<polygon fill="#ff0000" stroke="#ff0000" stroke-width=".2484" points="124.638,-271.7588 127.2471,-261.4902 118.8039,-267.8905 124.638,-271.7588"/>
</g>
<!-- 549&#45;&gt;418 -->
<g id="edge8" class="edge">
<title>549&#45;&gt;418</title>
<path fill="none" stroke="#ff0000" stroke-width=".128" d="M129.6067,-224.3782C125.0971,-215.0709 119.6075,-203.7413 114.6478,-193.5052"/>
<polygon fill="#ff0000" stroke="#ff0000" stroke-width=".128" points="117.7954,-191.9745 110.2852,-184.5014 111.4959,-195.0268 117.7954,-191.9745"/>
</g>
<!-- 367&#45;&gt;0 -->
<g id="edge3" class="edge">
<title>367&#45;&gt;0</title>
<path fill="none" stroke="#00ff00" stroke-width=".1211" d="M94.0361,-66.8383C91.0129,-58.1239 87.4483,-47.8488 84.2897,-38.7443"/>
<polygon fill="#00ff00" stroke="#00ff00" stroke-width=".1211" points="87.531,-37.4084 80.9467,-29.108 80.9176,-39.7028 87.531,-37.4084"/>
</g>
<!-- 431 -->
<g id="node10" class="node">
<title>431</title>
<ellipse fill="#ffffff" stroke="#000000" cx="161" cy="-86.9117" rx="21.4286" ry="21.4286"/>
<text text-anchor="middle" x="161" y="-84.7117" font-family="Times,serif" font-size="9.00" fill="#000000">431</text>
</g>
<!-- 431&#45;&gt;0 -->
<g id="edge7" class="edge">
<title>431&#45;&gt;0</title>
<path fill="none" stroke="#00ff00" stroke-width=".1148" d="M144.6111,-73.0173C130.5772,-61.1194 110.3414,-43.9637 95.4818,-31.3658"/>
<polygon fill="#00ff00" stroke="#00ff00" stroke-width=".1148" points="97.3325,-28.3462 87.4414,-24.5492 92.8058,-33.6856 97.3325,-28.3462"/>
</g>
</g>
</svg>
