<?xml version="1.0" encoding="utf-8" standalone="no"?>
<!DOCTYPE svg PUBLIC "-//W3C//DTD SVG 1.1//EN"
  "http://www.w3.org/Graphics/SVG/1.1/DTD/svg11.dtd">
<!-- Created with matplotlib (https://matplotlib.org/) -->
<svg height="345.6pt" version="1.1" viewBox="0 0 460.8 345.6" width="460.8pt" xmlns="http://www.w3.org/2000/svg" xmlns:xlink="http://www.w3.org/1999/xlink">
 <defs>
  <style type="text/css">
*{stroke-linecap:butt;stroke-linejoin:round;}
  </style>
 </defs>
 <g id="figure_1">
  <g id="patch_1">
   <path d="M 0 345.6 
L 460.8 345.6 
L 460.8 0 
L 0 0 
z
" style="fill:#ffffff;"/>
  </g>
  <g id="axes_1">
   <g id="patch_2">
    <path d="M 57.6 307.584 
L 414.72 307.584 
L 414.72 41.472 
L 57.6 41.472 
z
" style="fill:#ffffff;"/>
   </g>
   <g id="PolyCollection_1">
    <path clip-path="url(#p985f0e9133)" d="M 73.832727 66.212571 
L 73.832727 307.584 
L 80.45833 307.584 
L 87.083933 307.584 
L 93.709536 307.584 
L 100.335139 307.584 
L 106.960742 307.584 
L 113.586345 307.584 
L 120.211948 307.584 
L 126.837551 307.584 
L 133.463154 307.584 
L 140.088757 307.584 
L 146.71436 307.584 
L 153.339963 307.584 
L 159.965566 307.584 
L 166.591169 307.584 
L 173.216772 307.584 
L 179.842375 307.584 
L 186.467978 307.584 
L 193.093581 307.584 
L 199.719184 307.584 
L 206.344787 307.584 
L 212.97039 307.584 
L 219.595993 307.584 
L 226.221596 307.584 
L 232.847199 307.584 
L 239.472801 307.584 
L 246.098404 307.584 
L 252.724007 307.584 
L 259.34961 307.584 
L 265.975213 307.584 
L 272.600816 307.584 
L 279.226419 307.584 
L 285.852022 307.584 
L 292.477625 307.584 
L 299.103228 307.584 
L 305.728831 307.584 
L 312.354434 307.584 
L 318.980037 307.584 
L 325.60564 307.584 
L 332.231243 307.584 
L 338.856846 307.584 
L 345.482449 307.584 
L 352.108052 307.584 
L 358.733655 307.584 
L 365.359258 307.584 
L 371.984861 307.584 
L 378.610464 307.584 
L 385.236067 307.584 
L 391.86167 307.584 
L 398.487273 307.584 
L 398.487273 307.584 
L 398.487273 307.584 
L 391.86167 307.584 
L 385.236067 307.584 
L 378.610464 307.584 
L 371.984861 307.584 
L 365.359258 307.584 
L 358.733655 307.584 
L 352.108052 307.584 
L 345.482449 307.584 
L 338.856846 307.584 
L 332.231243 307.584 
L 325.60564 307.584 
L 318.980037 307.584 
L 312.354434 307.584 
L 305.728831 307.584 
L 299.103228 307.584 
L 292.477625 307.584 
L 285.852022 307.584 
L 279.226419 307.584 
L 272.600816 307.584 
L 265.975213 307.584 
L 259.34961 307.584 
L 252.724007 307.584 
L 246.098404 307.584 
L 239.472801 307.584 
L 232.847199 307.584 
L 226.221596 307.584 
L 219.595993 307.584 
L 212.97039 307.584 
L 206.344787 307.584 
L 199.719184 307.584 
L 193.093581 307.584 
L 186.467978 307.584 
L 179.842375 307.584 
L 173.216772 271.378286 
L 166.591169 261.723429 
L 159.965566 256.896 
L 153.339963 249.654857 
L 146.71436 244.827429 
L 140.088757 235.172571 
L 133.463154 232.758857 
L 126.837551 230.345143 
L 120.211948 223.104 
L 113.586345 208.621714 
L 106.960742 179.657143 
L 100.335139 167.588571 
L 93.709536 150.692571 
L 87.083933 133.796571 
L 80.45833 80.694857 
L 73.832727 66.212571 
z
" style="fill:#1f77b4;"/>
   </g>
   <g id="PolyCollection_2">
    <path clip-path="url(#p985f0e9133)" d="M 73.832727 66.212571 
L 73.832727 66.212571 
L 80.45833 80.694857 
L 87.083933 133.796571 
L 93.709536 150.692571 
L 100.335139 167.588571 
L 106.960742 179.657143 
L 113.586345 208.621714 
L 120.211948 223.104 
L 126.837551 230.345143 
L 133.463154 232.758857 
L 140.088757 235.172571 
L 146.71436 244.827429 
L 153.339963 249.654857 
L 159.965566 256.896 
L 166.591169 261.723429 
L 173.216772 271.378286 
L 179.842375 307.584 
L 186.467978 307.584 
L 193.093581 307.584 
L 199.719184 307.584 
L 206.344787 307.584 
L 212.97039 307.584 
L 219.595993 307.584 
L 226.221596 307.584 
L 232.847199 307.584 
L 239.472801 307.584 
L 246.098404 307.584 
L 252.724007 307.584 
L 259.34961 307.584 
L 265.975213 307.584 
L 272.600816 307.584 
L 279.226419 307.584 
L 285.852022 307.584 
L 292.477625 307.584 
L 299.103228 307.584 
L 305.728831 307.584 
L 312.354434 307.584 
L 318.980037 307.584 
L 325.60564 307.584 
L 332.231243 307.584 
L 338.856846 307.584 
L 345.482449 307.584 
L 352.108052 307.584 
L 358.733655 307.584 
L 365.359258 307.584 
L 371.984861 307.584 
L 378.610464 307.584 
L 385.236067 307.584 
L 391.86167 307.584 
L 398.487273 307.584 
L 398.487273 307.584 
L 398.487273 307.584 
L 391.86167 307.584 
L 385.236067 307.584 
L 378.610464 307.584 
L 371.984861 307.584 
L 365.359258 307.584 
L 358.733655 307.584 
L 352.108052 307.584 
L 345.482449 307.584 
L 338.856846 307.584 
L 332.231243 307.584 
L 325.60564 307.584 
L 318.980037 307.584 
L 312.354434 307.584 
L 305.728831 307.584 
L 299.103228 307.584 
L 292.477625 307.584 
L 285.852022 307.584 
L 279.226419 307.584 
L 272.600816 307.584 
L 265.975213 307.584 
L 259.34961 307.584 
L 252.724007 307.584 
L 246.098404 307.584 
L 239.472801 307.584 
L 232.847199 307.584 
L 226.221596 307.584 
L 219.595993 307.584 
L 212.97039 307.584 
L 206.344787 307.584 
L 199.719184 307.584 
L 193.093581 307.584 
L 186.467978 307.584 
L 179.842375 281.033143 
L 173.216772 244.827429 
L 166.591169 235.172571 
L 159.965566 235.172571 
L 153.339963 223.104 
L 146.71436 213.449143 
L 140.088757 208.621714 
L 133.463154 196.553143 
L 126.837551 174.829714 
L 120.211948 182.070857 
L 113.586345 170.002286 
L 106.960742 150.692571 
L 100.335139 141.037714 
L 93.709536 114.486857 
L 87.083933 112.073143 
L 80.45833 71.04 
L 73.832727 66.212571 
z
" style="fill:#ff7f0e;"/>
   </g>
   <g id="PolyCollection_3">
    <path clip-path="url(#p985f0e9133)" d="M 73.832727 66.212571 
L 73.832727 66.212571 
L 80.45833 71.04 
L 87.083933 112.073143 
L 93.709536 114.486857 
L 100.335139 141.037714 
L 106.960742 150.692571 
L 113.586345 170.002286 
L 120.211948 182.070857 
L 126.837551 174.829714 
L 133.463154 196.553143 
L 140.088757 208.621714 
L 146.71436 213.449143 
L 153.339963 223.104 
L 159.965566 235.172571 
L 166.591169 235.172571 
L 173.216772 244.827429 
L 179.842375 281.033143 
L 186.467978 307.584 
L 193.093581 307.584 
L 199.719184 307.584 
L 206.344787 307.584 
L 212.97039 307.584 
L 219.595993 307.584 
L 226.221596 307.584 
L 232.847199 307.584 
L 239.472801 307.584 
L 246.098404 307.584 
L 252.724007 307.584 
L 259.34961 307.584 
L 265.975213 307.584 
L 272.600816 307.584 
L 279.226419 307.584 
L 285.852022 307.584 
L 292.477625 307.584 
L 299.103228 307.584 
L 305.728831 307.584 
L 312.354434 307.584 
L 318.980037 307.584 
L 325.60564 307.584 
L 332.231243 307.584 
L 338.856846 307.584 
L 345.482449 307.584 
L 352.108052 307.584 
L 358.733655 307.584 
L 365.359258 307.584 
L 371.984861 307.584 
L 378.610464 307.584 
L 385.236067 307.584 
L 391.86167 307.584 
L 398.487273 307.584 
L 398.487273 307.584 
L 398.487273 307.584 
L 391.86167 307.584 
L 385.236067 307.584 
L 378.610464 307.584 
L 371.984861 307.584 
L 365.359258 307.584 
L 358.733655 307.584 
L 352.108052 307.584 
L 345.482449 307.584 
L 338.856846 307.584 
L 332.231243 307.584 
L 325.60564 307.584 
L 318.980037 307.584 
L 312.354434 307.584 
L 305.728831 307.584 
L 299.103228 307.584 
L 292.477625 307.584 
L 285.852022 307.584 
L 279.226419 307.584 
L 272.600816 307.584 
L 265.975213 307.584 
L 259.34961 307.584 
L 252.724007 307.584 
L 246.098404 307.584 
L 239.472801 307.584 
L 232.847199 307.584 
L 226.221596 307.584 
L 219.595993 307.584 
L 212.97039 307.584 
L 206.344787 307.584 
L 199.719184 307.584 
L 193.093581 307.584 
L 186.467978 307.584 
L 179.842375 247.241143 
L 173.216772 208.621714 
L 166.591169 198.966857 
L 159.965566 203.794286 
L 153.339963 189.312 
L 146.71436 177.243429 
L 140.088757 172.416 
L 133.463154 157.933714 
L 126.837551 143.451429 
L 120.211948 150.692571 
L 113.586345 126.555429 
L 106.960742 114.486857 
L 100.335139 104.832 
L 93.709536 92.763429 
L 87.083933 83.108571 
L 80.45833 68.626286 
L 73.832727 66.212571 
z
" style="fill:#2ca02c;"/>
   </g>
   <g id="PolyCollection_4">
    <path clip-path="url(#p985f0e9133)" d="M 73.832727 66.212571 
L 73.832727 66.212571 
L 80.45833 68.626286 
L 87.083933 83.108571 
L 93.709536 92.763429 
L 100.335139 104.832 
L 106.960742 114.486857 
L 113.586345 126.555429 
L 120.211948 150.692571 
L 126.837551 143.451429 
L 133.463154 157.933714 
L 140.088757 172.416 
L 146.71436 177.243429 
L 153.339963 189.312 
L 159.965566 203.794286 
L 166.591169 198.966857 
L 173.216772 208.621714 
L 179.842375 247.241143 
L 186.467978 307.584 
L 193.093581 307.584 
L 199.719184 307.584 
L 206.344787 307.584 
L 212.97039 307.584 
L 219.595993 307.584 
L 226.221596 307.584 
L 232.847199 307.584 
L 239.472801 307.584 
L 246.098404 307.584 
L 252.724007 307.584 
L 259.34961 307.584 
L 265.975213 307.584 
L 272.600816 307.584 
L 279.226419 307.584 
L 285.852022 307.584 
L 292.477625 307.584 
L 299.103228 307.584 
L 305.728831 307.584 
L 312.354434 307.584 
L 318.980037 307.584 
L 325.60564 307.584 
L 332.231243 307.584 
L 338.856846 307.584 
L 345.482449 307.584 
L 352.108052 307.584 
L 358.733655 307.584 
L 365.359258 307.584 
L 371.984861 307.584 
L 378.610464 307.584 
L 385.236067 307.584 
L 391.86167 307.584 
L 398.487273 307.584 
L 398.487273 307.584 
L 398.487273 307.584 
L 391.86167 307.584 
L 385.236067 307.584 
L 378.610464 307.584 
L 371.984861 307.584 
L 365.359258 307.584 
L 358.733655 307.584 
L 352.108052 307.584 
L 345.482449 307.584 
L 338.856846 307.584 
L 332.231243 307.584 
L 325.60564 307.584 
L 318.980037 307.584 
L 312.354434 307.584 
L 305.728831 307.584 
L 299.103228 307.584 
L 292.477625 307.584 
L 285.852022 307.584 
L 279.226419 307.584 
L 272.600816 307.584 
L 265.975213 307.584 
L 259.34961 307.584 
L 252.724007 307.584 
L 246.098404 307.584 
L 239.472801 307.584 
L 232.847199 307.584 
L 226.221596 307.584 
L 219.595993 307.584 
L 212.97039 307.584 
L 206.344787 307.584 
L 199.719184 307.584 
L 193.093581 307.584 
L 186.467978 307.584 
L 179.842375 227.931429 
L 173.216772 182.070857 
L 166.591169 179.657143 
L 159.965566 189.312 
L 153.339963 174.829714 
L 146.71436 165.174857 
L 140.088757 162.761143 
L 133.463154 131.382857 
L 126.837551 112.073143 
L 120.211948 107.245714 
L 113.586345 85.522286 
L 106.960742 75.867429 
L 100.335139 63.798857 
L 93.709536 63.798857 
L 87.083933 66.212571 
L 80.45833 66.212571 
L 73.832727 66.212571 
z
" style="fill:#d62728;"/>
   </g>
   <g id="PolyCollection_5">
    <path clip-path="url(#p985f0e9133)" d="M 73.832727 66.212571 
L 73.832727 66.212571 
L 80.45833 66.212571 
L 87.083933 66.212571 
L 93.709536 63.798857 
L 100.335139 63.798857 
L 106.960742 75.867429 
L 113.586345 85.522286 
L 120.211948 107.245714 
L 126.837551 112.073143 
L 133.463154 131.382857 
L 140.088757 162.761143 
L 146.71436 165.174857 
L 153.339963 174.829714 
L 159.965566 189.312 
L 166.591169 179.657143 
L 173.216772 182.070857 
L 179.842375 227.931429 
L 186.467978 307.584 
L 193.093581 307.584 
L 199.719184 307.584 
L 206.344787 307.584 
L 212.97039 307.584 
L 219.595993 307.584 
L 226.221596 307.584 
L 232.847199 307.584 
L 239.472801 307.584 
L 246.098404 307.584 
L 252.724007 307.584 
L 259.34961 307.584 
L 265.975213 307.584 
L 272.600816 307.584 
L 279.226419 307.584 
L 285.852022 307.584 
L 292.477625 307.584 
L 299.103228 307.584 
L 305.728831 307.584 
L 312.354434 307.584 
L 318.980037 307.584 
L 325.60564 307.584 
L 332.231243 307.584 
L 338.856846 307.584 
L 345.482449 307.584 
L 352.108052 307.584 
L 358.733655 307.584 
L 365.359258 307.584 
L 371.984861 307.584 
L 378.610464 307.584 
L 385.236067 307.584 
L 391.86167 307.584 
L 398.487273 307.584 
L 398.487273 307.584 
L 398.487273 307.584 
L 391.86167 307.584 
L 385.236067 307.584 
L 378.610464 307.584 
L 371.984861 307.584 
L 365.359258 307.584 
L 358.733655 307.584 
L 352.108052 307.584 
L 345.482449 307.584 
L 338.856846 307.584 
L 332.231243 307.584 
L 325.60564 307.584 
L 318.980037 307.584 
L 312.354434 307.584 
L 305.728831 307.584 
L 299.103228 307.584 
L 292.477625 307.584 
L 285.852022 307.584 
L 279.226419 307.584 
L 272.600816 307.584 
L 265.975213 307.584 
L 259.34961 307.584 
L 252.724007 307.584 
L 246.098404 307.584 
L 239.472801 307.584 
L 232.847199 307.584 
L 226.221596 307.584 
L 219.595993 307.584 
L 212.97039 307.584 
L 206.344787 276.205714 
L 199.719184 283.446857 
L 193.093581 271.378286 
L 186.467978 271.378286 
L 179.842375 208.621714 
L 173.216772 165.174857 
L 166.591169 157.933714 
L 159.965566 162.761143 
L 153.339963 155.52 
L 146.71436 143.451429 
L 140.088757 141.037714 
L 133.463154 112.073143 
L 126.837551 90.349714 
L 120.211948 90.349714 
L 113.586345 66.212571 
L 106.960742 66.212571 
L 100.335139 63.798857 
L 93.709536 63.798857 
L 87.083933 66.212571 
L 80.45833 66.212571 
L 73.832727 66.212571 
z
" style="fill:#9467bd;"/>
   </g>
   <g id="PolyCollection_6">
    <path clip-path="url(#p985f0e9133)" d="M 73.832727 66.212571 
L 73.832727 66.212571 
L 80.45833 66.212571 
L 87.083933 66.212571 
L 93.709536 63.798857 
L 100.335139 63.798857 
L 106.960742 66.212571 
L 113.586345 66.212571 
L 120.211948 90.349714 
L 126.837551 90.349714 
L 133.463154 112.073143 
L 140.088757 141.037714 
L 146.71436 143.451429 
L 153.339963 155.52 
L 159.965566 162.761143 
L 166.591169 157.933714 
L 173.216772 165.174857 
L 179.842375 208.621714 
L 186.467978 271.378286 
L 193.093581 271.378286 
L 199.719184 283.446857 
L 206.344787 276.205714 
L 212.97039 307.584 
L 219.595993 307.584 
L 226.221596 307.584 
L 232.847199 307.584 
L 239.472801 307.584 
L 246.098404 307.584 
L 252.724007 307.584 
L 259.34961 307.584 
L 265.975213 307.584 
L 272.600816 307.584 
L 279.226419 307.584 
L 285.852022 307.584 
L 292.477625 307.584 
L 299.103228 307.584 
L 305.728831 307.584 
L 312.354434 307.584 
L 318.980037 307.584 
L 325.60564 307.584 
L 332.231243 307.584 
L 338.856846 307.584 
L 345.482449 307.584 
L 352.108052 307.584 
L 358.733655 307.584 
L 365.359258 307.584 
L 371.984861 307.584 
L 378.610464 307.584 
L 385.236067 307.584 
L 391.86167 307.584 
L 398.487273 307.584 
L 398.487273 307.584 
L 398.487273 307.584 
L 391.86167 307.584 
L 385.236067 307.584 
L 378.610464 307.584 
L 371.984861 307.584 
L 365.359258 307.584 
L 358.733655 307.584 
L 352.108052 307.584 
L 345.482449 307.584 
L 338.856846 307.584 
L 332.231243 307.584 
L 325.60564 307.584 
L 318.980037 307.584 
L 312.354434 307.584 
L 305.728831 307.584 
L 299.103228 307.584 
L 292.477625 307.584 
L 285.852022 307.584 
L 279.226419 307.584 
L 272.600816 307.584 
L 265.975213 307.584 
L 259.34961 307.584 
L 252.724007 307.584 
L 246.098404 307.584 
L 239.472801 307.584 
L 232.847199 307.584 
L 226.221596 307.584 
L 219.595993 295.515429 
L 212.97039 288.274286 
L 206.344787 244.827429 
L 199.719184 249.654857 
L 193.093581 230.345143 
L 186.467978 230.345143 
L 179.842375 174.829714 
L 173.216772 138.624 
L 166.591169 131.382857 
L 159.965566 136.210286 
L 153.339963 128.969143 
L 146.71436 119.314286 
L 140.088757 116.900571 
L 133.463154 85.522286 
L 126.837551 66.212571 
L 120.211948 68.626286 
L 113.586345 66.212571 
L 106.960742 66.212571 
L 100.335139 63.798857 
L 93.709536 63.798857 
L 87.083933 66.212571 
L 80.45833 66.212571 
L 73.832727 66.212571 
z
" style="fill:#8c564b;"/>
   </g>
   <g id="PolyCollection_7">
    <path clip-path="url(#p985f0e9133)" d="M 73.832727 66.212571 
L 73.832727 66.212571 
L 80.45833 66.212571 
L 87.083933 66.212571 
L 93.709536 63.798857 
L 100.335139 63.798857 
L 106.960742 66.212571 
L 113.586345 66.212571 
L 120.211948 68.626286 
L 126.837551 66.212571 
L 133.463154 85.522286 
L 140.088757 116.900571 
L 146.71436 119.314286 
L 153.339963 128.969143 
L 159.965566 136.210286 
L 166.591169 131.382857 
L 173.216772 138.624 
L 179.842375 174.829714 
L 186.467978 230.345143 
L 193.093581 230.345143 
L 199.719184 249.654857 
L 206.344787 244.827429 
L 212.97039 288.274286 
L 219.595993 295.515429 
L 226.221596 307.584 
L 232.847199 307.584 
L 239.472801 307.584 
L 246.098404 307.584 
L 252.724007 307.584 
L 259.34961 307.584 
L 265.975213 307.584 
L 272.600816 307.584 
L 279.226419 307.584 
L 285.852022 307.584 
L 292.477625 307.584 
L 299.103228 307.584 
L 305.728831 307.584 
L 312.354434 307.584 
L 318.980037 307.584 
L 325.60564 307.584 
L 332.231243 307.584 
L 338.856846 307.584 
L 345.482449 307.584 
L 352.108052 307.584 
L 358.733655 307.584 
L 365.359258 307.584 
L 371.984861 307.584 
L 378.610464 307.584 
L 385.236067 307.584 
L 391.86167 307.584 
L 398.487273 307.584 
L 398.487273 307.584 
L 398.487273 307.584 
L 391.86167 307.584 
L 385.236067 307.584 
L 378.610464 307.584 
L 371.984861 288.274286 
L 365.359258 288.274286 
L 358.733655 290.688 
L 352.108052 283.446857 
L 345.482449 283.446857 
L 338.856846 281.033143 
L 332.231243 290.688 
L 325.60564 295.515429 
L 318.980037 290.688 
L 312.354434 285.860571 
L 305.728831 283.446857 
L 299.103228 271.378286 
L 292.477625 281.033143 
L 285.852022 276.205714 
L 279.226419 276.205714 
L 272.600816 271.378286 
L 265.975213 290.688 
L 259.34961 293.101714 
L 252.724007 254.482286 
L 246.098404 281.033143 
L 239.472801 235.172571 
L 232.847199 208.621714 
L 226.221596 114.486857 
L 219.595993 128.969143 
L 212.97039 157.933714 
L 206.344787 194.139429 
L 199.719184 194.139429 
L 193.093581 170.002286 
L 186.467978 165.174857 
L 179.842375 121.728 
L 173.216772 102.418286 
L 166.591169 97.590857 
L 159.965566 95.177143 
L 153.339963 90.349714 
L 146.71436 87.936 
L 140.088757 73.453714 
L 133.463154 63.798857 
L 126.837551 66.212571 
L 120.211948 68.626286 
L 113.586345 66.212571 
L 106.960742 66.212571 
L 100.335139 63.798857 
L 93.709536 63.798857 
L 87.083933 66.212571 
L 80.45833 66.212571 
L 73.832727 66.212571 
z
" style="fill:#e377c2;"/>
   </g>
   <g id="PolyCollection_8">
    <path clip-path="url(#p985f0e9133)" d="M 73.832727 66.212571 
L 73.832727 66.212571 
L 80.45833 66.212571 
L 87.083933 66.212571 
L 93.709536 63.798857 
L 100.335139 63.798857 
L 106.960742 66.212571 
L 113.586345 66.212571 
L 120.211948 68.626286 
L 126.837551 66.212571 
L 133.463154 63.798857 
L 140.088757 73.453714 
L 146.71436 87.936 
L 153.339963 90.349714 
L 159.965566 95.177143 
L 166.591169 97.590857 
L 173.216772 102.418286 
L 179.842375 121.728 
L 186.467978 165.174857 
L 193.093581 170.002286 
L 199.719184 194.139429 
L 206.344787 194.139429 
L 212.97039 157.933714 
L 219.595993 128.969143 
L 226.221596 114.486857 
L 232.847199 208.621714 
L 239.472801 235.172571 
L 246.098404 281.033143 
L 252.724007 254.482286 
L 259.34961 293.101714 
L 265.975213 290.688 
L 272.600816 271.378286 
L 279.226419 276.205714 
L 285.852022 276.205714 
L 292.477625 281.033143 
L 299.103228 271.378286 
L 305.728831 283.446857 
L 312.354434 285.860571 
L 318.980037 290.688 
L 325.60564 295.515429 
L 332.231243 290.688 
L 338.856846 281.033143 
L 345.482449 283.446857 
L 352.108052 283.446857 
L 358.733655 290.688 
L 365.359258 288.274286 
L 371.984861 288.274286 
L 378.610464 307.584 
L 385.236067 307.584 
L 391.86167 307.584 
L 398.487273 307.584 
L 398.487273 307.584 
L 398.487273 307.584 
L 391.86167 307.584 
L 385.236067 307.584 
L 378.610464 283.446857 
L 371.984861 271.378286 
L 365.359258 271.378286 
L 358.733655 273.792 
L 352.108052 266.550857 
L 345.482449 268.964571 
L 338.856846 268.964571 
L 332.231243 276.205714 
L 325.60564 283.446857 
L 318.980037 273.792 
L 312.354434 266.550857 
L 305.728831 261.723429 
L 299.103228 247.241143 
L 292.477625 259.309714 
L 285.852022 252.068571 
L 279.226419 252.068571 
L 272.600816 232.758857 
L 265.975213 256.896 
L 259.34961 283.446857 
L 252.724007 235.172571 
L 246.098404 254.482286 
L 239.472801 223.104 
L 232.847199 165.174857 
L 226.221596 97.590857 
L 219.595993 104.832 
L 212.97039 119.314286 
L 206.344787 162.761143 
L 199.719184 170.002286 
L 193.093581 126.555429 
L 186.467978 107.245714 
L 179.842375 87.936 
L 173.216772 71.04 
L 166.591169 68.626286 
L 159.965566 66.212571 
L 153.339963 63.798857 
L 146.71436 63.798857 
L 140.088757 66.212571 
L 133.463154 63.798857 
L 126.837551 66.212571 
L 120.211948 68.626286 
L 113.586345 66.212571 
L 106.960742 66.212571 
L 100.335139 63.798857 
L 93.709536 63.798857 
L 87.083933 66.212571 
L 80.45833 66.212571 
L 73.832727 66.212571 
z
" style="fill:#7f7f7f;"/>
   </g>
   <g id="PolyCollection_9">
    <path clip-path="url(#p985f0e9133)" d="M 73.832727 66.212571 
L 73.832727 66.212571 
L 80.45833 66.212571 
L 87.083933 66.212571 
L 93.709536 63.798857 
L 100.335139 63.798857 
L 106.960742 66.212571 
L 113.586345 66.212571 
L 120.211948 68.626286 
L 126.837551 66.212571 
L 133.463154 63.798857 
L 140.088757 66.212571 
L 146.71436 63.798857 
L 153.339963 63.798857 
L 159.965566 66.212571 
L 166.591169 68.626286 
L 173.216772 71.04 
L 179.842375 87.936 
L 186.467978 107.245714 
L 193.093581 126.555429 
L 199.719184 170.002286 
L 206.344787 162.761143 
L 212.97039 119.314286 
L 219.595993 104.832 
L 226.221596 97.590857 
L 232.847199 165.174857 
L 239.472801 223.104 
L 246.098404 254.482286 
L 252.724007 235.172571 
L 259.34961 283.446857 
L 265.975213 256.896 
L 272.600816 232.758857 
L 279.226419 252.068571 
L 285.852022 252.068571 
L 292.477625 259.309714 
L 299.103228 247.241143 
L 305.728831 261.723429 
L 312.354434 266.550857 
L 318.980037 273.792 
L 325.60564 283.446857 
L 332.231243 276.205714 
L 338.856846 268.964571 
L 345.482449 268.964571 
L 352.108052 266.550857 
L 358.733655 273.792 
L 365.359258 271.378286 
L 371.984861 271.378286 
L 378.610464 283.446857 
L 385.236067 307.584 
L 391.86167 307.584 
L 398.487273 307.584 
L 398.487273 307.584 
L 398.487273 307.584 
L 391.86167 307.584 
L 385.236067 307.584 
L 378.610464 283.446857 
L 371.984861 271.378286 
L 365.359258 259.309714 
L 358.733655 259.309714 
L 352.108052 249.654857 
L 345.482449 261.723429 
L 338.856846 261.723429 
L 332.231243 266.550857 
L 325.60564 271.378286 
L 318.980037 256.896 
L 312.354434 247.241143 
L 305.728831 244.827429 
L 299.103228 230.345143 
L 292.477625 244.827429 
L 285.852022 240 
L 279.226419 242.413714 
L 272.600816 213.449143 
L 265.975213 201.380571 
L 259.34961 249.654857 
L 252.724007 203.794286 
L 246.098404 218.276571 
L 239.472801 213.449143 
L 232.847199 128.969143 
L 226.221596 87.936 
L 219.595993 95.177143 
L 212.97039 100.004571 
L 206.344787 133.796571 
L 199.719184 128.969143 
L 193.093581 87.936 
L 186.467978 66.212571 
L 179.842375 66.212571 
L 173.216772 63.798857 
L 166.591169 68.626286 
L 159.965566 66.212571 
L 153.339963 63.798857 
L 146.71436 63.798857 
L 140.088757 66.212571 
L 133.463154 63.798857 
L 126.837551 66.212571 
L 120.211948 68.626286 
L 113.586345 66.212571 
L 106.960742 66.212571 
L 100.335139 63.798857 
L 93.709536 63.798857 
L 87.083933 66.212571 
L 80.45833 66.212571 
L 73.832727 66.212571 
z
" style="fill:#bcbd22;"/>
   </g>
   <g id="PolyCollection_10">
    <path clip-path="url(#p985f0e9133)" d="M 73.832727 66.212571 
L 73.832727 66.212571 
L 80.45833 66.212571 
L 87.083933 66.212571 
L 93.709536 63.798857 
L 100.335139 63.798857 
L 106.960742 66.212571 
L 113.586345 66.212571 
L 120.211948 68.626286 
L 126.837551 66.212571 
L 133.463154 63.798857 
L 140.088757 66.212571 
L 146.71436 63.798857 
L 153.339963 63.798857 
L 159.965566 66.212571 
L 166.591169 68.626286 
L 173.216772 63.798857 
L 179.842375 66.212571 
L 186.467978 66.212571 
L 193.093581 87.936 
L 199.719184 128.969143 
L 206.344787 133.796571 
L 212.97039 100.004571 
L 219.595993 95.177143 
L 226.221596 87.936 
L 232.847199 128.969143 
L 239.472801 213.449143 
L 246.098404 218.276571 
L 252.724007 203.794286 
L 259.34961 249.654857 
L 265.975213 201.380571 
L 272.600816 213.449143 
L 279.226419 242.413714 
L 285.852022 240 
L 292.477625 244.827429 
L 299.103228 230.345143 
L 305.728831 244.827429 
L 312.354434 247.241143 
L 318.980037 256.896 
L 325.60564 271.378286 
L 332.231243 266.550857 
L 338.856846 261.723429 
L 345.482449 261.723429 
L 352.108052 249.654857 
L 358.733655 259.309714 
L 365.359258 259.309714 
L 371.984861 271.378286 
L 378.610464 283.446857 
L 385.236067 307.584 
L 391.86167 307.584 
L 398.487273 307.584 
L 398.487273 307.584 
L 398.487273 307.584 
L 391.86167 307.584 
L 385.236067 307.584 
L 378.610464 283.446857 
L 371.984861 271.378286 
L 365.359258 259.309714 
L 358.733655 237.586286 
L 352.108052 232.758857 
L 345.482449 247.241143 
L 338.856846 244.827429 
L 332.231243 254.482286 
L 325.60564 252.068571 
L 318.980037 242.413714 
L 312.354434 232.758857 
L 305.728831 227.931429 
L 299.103228 208.621714 
L 292.477625 208.621714 
L 285.852022 191.725714 
L 279.226419 170.002286 
L 272.600816 160.347429 
L 265.975213 170.002286 
L 259.34961 87.936 
L 252.724007 174.829714 
L 246.098404 83.108571 
L 239.472801 136.210286 
L 232.847199 107.245714 
L 226.221596 75.867429 
L 219.595993 83.108571 
L 212.97039 83.108571 
L 206.344787 92.763429 
L 199.719184 100.004571 
L 193.093581 68.626286 
L 186.467978 66.212571 
L 179.842375 66.212571 
L 173.216772 63.798857 
L 166.591169 68.626286 
L 159.965566 66.212571 
L 153.339963 63.798857 
L 146.71436 63.798857 
L 140.088757 66.212571 
L 133.463154 63.798857 
L 126.837551 66.212571 
L 120.211948 68.626286 
L 113.586345 66.212571 
L 106.960742 66.212571 
L 100.335139 63.798857 
L 93.709536 63.798857 
L 87.083933 66.212571 
L 80.45833 66.212571 
L 73.832727 66.212571 
z
" style="fill:#17becf;"/>
   </g>
   <g id="PolyCollection_11">
    <path clip-path="url(#p985f0e9133)" d="M 73.832727 66.212571 
L 73.832727 66.212571 
L 80.45833 66.212571 
L 87.083933 66.212571 
L 93.709536 63.798857 
L 100.335139 63.798857 
L 106.960742 66.212571 
L 113.586345 66.212571 
L 120.211948 68.626286 
L 126.837551 66.212571 
L 133.463154 63.798857 
L 140.088757 66.212571 
L 146.71436 63.798857 
L 153.339963 63.798857 
L 159.965566 66.212571 
L 166.591169 68.626286 
L 173.216772 63.798857 
L 179.842375 66.212571 
L 186.467978 66.212571 
L 193.093581 68.626286 
L 199.719184 100.004571 
L 206.344787 92.763429 
L 212.97039 83.108571 
L 219.595993 83.108571 
L 226.221596 75.867429 
L 232.847199 107.245714 
L 239.472801 136.210286 
L 246.098404 83.108571 
L 252.724007 174.829714 
L 259.34961 87.936 
L 265.975213 170.002286 
L 272.600816 160.347429 
L 279.226419 170.002286 
L 285.852022 191.725714 
L 292.477625 208.621714 
L 299.103228 208.621714 
L 305.728831 227.931429 
L 312.354434 232.758857 
L 318.980037 242.413714 
L 325.60564 252.068571 
L 332.231243 254.482286 
L 338.856846 244.827429 
L 345.482449 247.241143 
L 352.108052 232.758857 
L 358.733655 237.586286 
L 365.359258 259.309714 
L 371.984861 271.378286 
L 378.610464 283.446857 
L 385.236067 307.584 
L 391.86167 307.584 
L 398.487273 307.584 
L 398.487273 307.584 
L 398.487273 307.584 
L 391.86167 307.584 
L 385.236067 307.584 
L 378.610464 283.446857 
L 371.984861 271.378286 
L 365.359258 259.309714 
L 358.733655 237.586286 
L 352.108052 232.758857 
L 345.482449 247.241143 
L 338.856846 230.345143 
L 332.231243 235.172571 
L 325.60564 232.758857 
L 318.980037 223.104 
L 312.354434 215.862857 
L 305.728831 211.035429 
L 299.103228 186.898286 
L 292.477625 184.484571 
L 285.852022 167.588571 
L 279.226419 165.174857 
L 272.600816 136.210286 
L 265.975213 75.867429 
L 259.34961 71.04 
L 252.724007 66.212571 
L 246.098404 66.212571 
L 239.472801 63.798857 
L 232.847199 63.798857 
L 226.221596 66.212571 
L 219.595993 68.626286 
L 212.97039 63.798857 
L 206.344787 63.798857 
L 199.719184 68.626286 
L 193.093581 66.212571 
L 186.467978 66.212571 
L 179.842375 66.212571 
L 173.216772 63.798857 
L 166.591169 68.626286 
L 159.965566 66.212571 
L 153.339963 63.798857 
L 146.71436 63.798857 
L 140.088757 66.212571 
L 133.463154 63.798857 
L 126.837551 66.212571 
L 120.211948 68.626286 
L 113.586345 66.212571 
L 106.960742 66.212571 
L 100.335139 63.798857 
L 93.709536 63.798857 
L 87.083933 66.212571 
L 80.45833 66.212571 
L 73.832727 66.212571 
z
" style="fill:#1f77b4;"/>
   </g>
   <g id="PolyCollection_12">
    <path clip-path="url(#p985f0e9133)" d="M 73.832727 66.212571 
L 73.832727 66.212571 
L 80.45833 66.212571 
L 87.083933 66.212571 
L 93.709536 63.798857 
L 100.335139 63.798857 
L 106.960742 66.212571 
L 113.586345 66.212571 
L 120.211948 68.626286 
L 126.837551 66.212571 
L 133.463154 63.798857 
L 140.088757 66.212571 
L 146.71436 63.798857 
L 153.339963 63.798857 
L 159.965566 66.212571 
L 166.591169 68.626286 
L 173.216772 63.798857 
L 179.842375 66.212571 
L 186.467978 66.212571 
L 193.093581 66.212571 
L 199.719184 68.626286 
L 206.344787 63.798857 
L 212.97039 63.798857 
L 219.595993 68.626286 
L 226.221596 66.212571 
L 232.847199 63.798857 
L 239.472801 63.798857 
L 246.098404 66.212571 
L 252.724007 66.212571 
L 259.34961 71.04 
L 265.975213 75.867429 
L 272.600816 136.210286 
L 279.226419 165.174857 
L 285.852022 167.588571 
L 292.477625 184.484571 
L 299.103228 186.898286 
L 305.728831 211.035429 
L 312.354434 215.862857 
L 318.980037 223.104 
L 325.60564 232.758857 
L 332.231243 235.172571 
L 338.856846 230.345143 
L 345.482449 247.241143 
L 352.108052 232.758857 
L 358.733655 237.586286 
L 365.359258 259.309714 
L 371.984861 271.378286 
L 378.610464 283.446857 
L 385.236067 307.584 
L 391.86167 307.584 
L 398.487273 307.584 
L 398.487273 307.584 
L 398.487273 307.584 
L 391.86167 307.584 
L 385.236067 307.584 
L 378.610464 283.446857 
L 371.984861 271.378286 
L 365.359258 259.309714 
L 358.733655 230.345143 
L 352.108052 225.517714 
L 345.482449 240 
L 338.856846 223.104 
L 332.231243 227.931429 
L 325.60564 225.517714 
L 318.980037 218.276571 
L 312.354434 208.621714 
L 305.728831 203.794286 
L 299.103228 177.243429 
L 292.477625 177.243429 
L 285.852022 160.347429 
L 279.226419 157.933714 
L 272.600816 128.969143 
L 265.975213 68.626286 
L 259.34961 68.626286 
L 252.724007 66.212571 
L 246.098404 66.212571 
L 239.472801 63.798857 
L 232.847199 63.798857 
L 226.221596 66.212571 
L 219.595993 68.626286 
L 212.97039 63.798857 
L 206.344787 63.798857 
L 199.719184 68.626286 
L 193.093581 66.212571 
L 186.467978 66.212571 
L 179.842375 66.212571 
L 173.216772 63.798857 
L 166.591169 68.626286 
L 159.965566 66.212571 
L 153.339963 63.798857 
L 146.71436 63.798857 
L 140.088757 66.212571 
L 133.463154 63.798857 
L 126.837551 66.212571 
L 120.211948 68.626286 
L 113.586345 66.212571 
L 106.960742 66.212571 
L 100.335139 63.798857 
L 93.709536 63.798857 
L 87.083933 66.212571 
L 80.45833 66.212571 
L 73.832727 66.212571 
z
" style="fill:#ff7f0e;"/>
   </g>
   <g id="PolyCollection_13">
    <path clip-path="url(#p985f0e9133)" d="M 73.832727 66.212571 
L 73.832727 66.212571 
L 80.45833 66.212571 
L 87.083933 66.212571 
L 93.709536 63.798857 
L 100.335139 63.798857 
L 106.960742 66.212571 
L 113.586345 66.212571 
L 120.211948 68.626286 
L 126.837551 66.212571 
L 133.463154 63.798857 
L 140.088757 66.212571 
L 146.71436 63.798857 
L 153.339963 63.798857 
L 159.965566 66.212571 
L 166.591169 68.626286 
L 173.216772 63.798857 
L 179.842375 66.212571 
L 186.467978 66.212571 
L 193.093581 66.212571 
L 199.719184 68.626286 
L 206.344787 63.798857 
L 212.97039 63.798857 
L 219.595993 68.626286 
L 226.221596 66.212571 
L 232.847199 63.798857 
L 239.472801 63.798857 
L 246.098404 66.212571 
L 252.724007 66.212571 
L 259.34961 68.626286 
L 265.975213 68.626286 
L 272.600816 128.969143 
L 279.226419 157.933714 
L 285.852022 160.347429 
L 292.477625 177.243429 
L 299.103228 177.243429 
L 305.728831 203.794286 
L 312.354434 208.621714 
L 318.980037 218.276571 
L 325.60564 225.517714 
L 332.231243 227.931429 
L 338.856846 223.104 
L 345.482449 240 
L 352.108052 225.517714 
L 358.733655 230.345143 
L 365.359258 259.309714 
L 371.984861 271.378286 
L 378.610464 283.446857 
L 385.236067 307.584 
L 391.86167 307.584 
L 398.487273 307.584 
L 398.487273 307.584 
L 398.487273 307.584 
L 391.86167 307.584 
L 385.236067 307.584 
L 378.610464 283.446857 
L 371.984861 271.378286 
L 365.359258 259.309714 
L 358.733655 223.104 
L 352.108052 218.276571 
L 345.482449 232.758857 
L 338.856846 215.862857 
L 332.231243 220.690286 
L 325.60564 218.276571 
L 318.980037 211.035429 
L 312.354434 201.380571 
L 305.728831 196.553143 
L 299.103228 170.002286 
L 292.477625 170.002286 
L 285.852022 153.106286 
L 279.226419 150.692571 
L 272.600816 121.728 
L 265.975213 61.385143 
L 259.34961 66.212571 
L 252.724007 66.212571 
L 246.098404 66.212571 
L 239.472801 63.798857 
L 232.847199 63.798857 
L 226.221596 66.212571 
L 219.595993 68.626286 
L 212.97039 63.798857 
L 206.344787 63.798857 
L 199.719184 68.626286 
L 193.093581 66.212571 
L 186.467978 66.212571 
L 179.842375 66.212571 
L 173.216772 63.798857 
L 166.591169 68.626286 
L 159.965566 66.212571 
L 153.339963 63.798857 
L 146.71436 63.798857 
L 140.088757 66.212571 
L 133.463154 63.798857 
L 126.837551 66.212571 
L 120.211948 68.626286 
L 113.586345 66.212571 
L 106.960742 66.212571 
L 100.335139 63.798857 
L 93.709536 63.798857 
L 87.083933 66.212571 
L 80.45833 66.212571 
L 73.832727 66.212571 
z
" style="fill:#2ca02c;"/>
   </g>
   <g id="PolyCollection_14">
    <path clip-path="url(#p985f0e9133)" d="M 73.832727 66.212571 
L 73.832727 66.212571 
L 80.45833 66.212571 
L 87.083933 66.212571 
L 93.709536 63.798857 
L 100.335139 63.798857 
L 106.960742 66.212571 
L 113.586345 66.212571 
L 120.211948 68.626286 
L 126.837551 66.212571 
L 133.463154 63.798857 
L 140.088757 66.212571 
L 146.71436 63.798857 
L 153.339963 63.798857 
L 159.965566 66.212571 
L 166.591169 68.626286 
L 173.216772 63.798857 
L 179.842375 66.212571 
L 186.467978 66.212571 
L 193.093581 66.212571 
L 199.719184 68.626286 
L 206.344787 63.798857 
L 212.97039 63.798857 
L 219.595993 68.626286 
L 226.221596 66.212571 
L 232.847199 63.798857 
L 239.472801 63.798857 
L 246.098404 66.212571 
L 252.724007 66.212571 
L 259.34961 66.212571 
L 265.975213 61.385143 
L 272.600816 121.728 
L 279.226419 150.692571 
L 285.852022 153.106286 
L 292.477625 170.002286 
L 299.103228 170.002286 
L 305.728831 196.553143 
L 312.354434 201.380571 
L 318.980037 211.035429 
L 325.60564 218.276571 
L 332.231243 220.690286 
L 338.856846 215.862857 
L 345.482449 232.758857 
L 352.108052 218.276571 
L 358.733655 223.104 
L 365.359258 259.309714 
L 371.984861 271.378286 
L 378.610464 283.446857 
L 385.236067 307.584 
L 391.86167 307.584 
L 398.487273 307.584 
L 398.487273 307.584 
L 398.487273 307.584 
L 391.86167 307.584 
L 385.236067 307.584 
L 378.610464 283.446857 
L 371.984861 240 
L 365.359258 237.586286 
L 358.733655 211.035429 
L 352.108052 201.380571 
L 345.482449 211.035429 
L 338.856846 196.553143 
L 332.231243 194.139429 
L 325.60564 198.966857 
L 318.980037 191.725714 
L 312.354434 186.898286 
L 305.728831 179.657143 
L 299.103228 150.692571 
L 292.477625 150.692571 
L 285.852022 136.210286 
L 279.226419 131.382857 
L 272.600816 100.004571 
L 265.975213 58.971429 
L 259.34961 66.212571 
L 252.724007 66.212571 
L 246.098404 66.212571 
L 239.472801 63.798857 
L 232.847199 63.798857 
L 226.221596 66.212571 
L 219.595993 68.626286 
L 212.97039 63.798857 
L 206.344787 63.798857 
L 199.719184 68.626286 
L 193.093581 66.212571 
L 186.467978 66.212571 
L 179.842375 66.212571 
L 173.216772 63.798857 
L 166.591169 68.626286 
L 159.965566 66.212571 
L 153.339963 63.798857 
L 146.71436 63.798857 
L 140.088757 66.212571 
L 133.463154 63.798857 
L 126.837551 66.212571 
L 120.211948 68.626286 
L 113.586345 66.212571 
L 106.960742 66.212571 
L 100.335139 63.798857 
L 93.709536 63.798857 
L 87.083933 66.212571 
L 80.45833 66.212571 
L 73.832727 66.212571 
z
" style="fill:#d62728;"/>
   </g>
   <g id="PolyCollection_15">
    <path clip-path="url(#p985f0e9133)" d="M 73.832727 66.212571 
L 73.832727 66.212571 
L 80.45833 66.212571 
L 87.083933 66.212571 
L 93.709536 63.798857 
L 100.335139 63.798857 
L 106.960742 66.212571 
L 113.586345 66.212571 
L 120.211948 68.626286 
L 126.837551 66.212571 
L 133.463154 63.798857 
L 140.088757 66.212571 
L 146.71436 63.798857 
L 153.339963 63.798857 
L 159.965566 66.212571 
L 166.591169 68.626286 
L 173.216772 63.798857 
L 179.842375 66.212571 
L 186.467978 66.212571 
L 193.093581 66.212571 
L 199.719184 68.626286 
L 206.344787 63.798857 
L 212.97039 63.798857 
L 219.595993 68.626286 
L 226.221596 66.212571 
L 232.847199 63.798857 
L 239.472801 63.798857 
L 246.098404 66.212571 
L 252.724007 66.212571 
L 259.34961 66.212571 
L 265.975213 58.971429 
L 272.600816 100.004571 
L 279.226419 131.382857 
L 285.852022 136.210286 
L 292.477625 150.692571 
L 299.103228 150.692571 
L 305.728831 179.657143 
L 312.354434 186.898286 
L 318.980037 191.725714 
L 325.60564 198.966857 
L 332.231243 194.139429 
L 338.856846 196.553143 
L 345.482449 211.035429 
L 352.108052 201.380571 
L 358.733655 211.035429 
L 365.359258 237.586286 
L 371.984861 240 
L 378.610464 283.446857 
L 385.236067 307.584 
L 391.86167 307.584 
L 398.487273 307.584 
L 398.487273 281.033143 
L 398.487273 281.033143 
L 391.86167 278.619429 
L 385.236067 281.033143 
L 378.610464 254.482286 
L 371.984861 215.862857 
L 365.359258 218.276571 
L 358.733655 191.725714 
L 352.108052 182.070857 
L 345.482449 191.725714 
L 338.856846 174.829714 
L 332.231243 179.657143 
L 325.60564 186.898286 
L 318.980037 177.243429 
L 312.354434 172.416 
L 305.728831 170.002286 
L 299.103228 141.037714 
L 292.477625 138.624 
L 285.852022 126.555429 
L 279.226419 116.900571 
L 272.600816 95.177143 
L 265.975213 58.971429 
L 259.34961 66.212571 
L 252.724007 66.212571 
L 246.098404 66.212571 
L 239.472801 63.798857 
L 232.847199 63.798857 
L 226.221596 66.212571 
L 219.595993 68.626286 
L 212.97039 63.798857 
L 206.344787 63.798857 
L 199.719184 68.626286 
L 193.093581 66.212571 
L 186.467978 66.212571 
L 179.842375 66.212571 
L 173.216772 63.798857 
L 166.591169 68.626286 
L 159.965566 66.212571 
L 153.339963 63.798857 
L 146.71436 63.798857 
L 140.088757 66.212571 
L 133.463154 63.798857 
L 126.837551 66.212571 
L 120.211948 68.626286 
L 113.586345 66.212571 
L 106.960742 66.212571 
L 100.335139 63.798857 
L 93.709536 63.798857 
L 87.083933 66.212571 
L 80.45833 66.212571 
L 73.832727 66.212571 
z
" style="fill:#9467bd;"/>
   </g>
   <g id="PolyCollection_16">
    <path clip-path="url(#p985f0e9133)" d="M 73.832727 66.212571 
L 73.832727 66.212571 
L 80.45833 66.212571 
L 87.083933 66.212571 
L 93.709536 63.798857 
L 100.335139 63.798857 
L 106.960742 66.212571 
L 113.586345 66.212571 
L 120.211948 68.626286 
L 126.837551 66.212571 
L 133.463154 63.798857 
L 140.088757 66.212571 
L 146.71436 63.798857 
L 153.339963 63.798857 
L 159.965566 66.212571 
L 166.591169 68.626286 
L 173.216772 63.798857 
L 179.842375 66.212571 
L 186.467978 66.212571 
L 193.093581 66.212571 
L 199.719184 68.626286 
L 206.344787 63.798857 
L 212.97039 63.798857 
L 219.595993 68.626286 
L 226.221596 66.212571 
L 232.847199 63.798857 
L 239.472801 63.798857 
L 246.098404 66.212571 
L 252.724007 66.212571 
L 259.34961 66.212571 
L 265.975213 58.971429 
L 272.600816 95.177143 
L 279.226419 116.900571 
L 285.852022 126.555429 
L 292.477625 138.624 
L 299.103228 141.037714 
L 305.728831 170.002286 
L 312.354434 172.416 
L 318.980037 177.243429 
L 325.60564 186.898286 
L 332.231243 179.657143 
L 338.856846 174.829714 
L 345.482449 191.725714 
L 352.108052 182.070857 
L 358.733655 191.725714 
L 365.359258 218.276571 
L 371.984861 215.862857 
L 378.610464 254.482286 
L 385.236067 281.033143 
L 391.86167 278.619429 
L 398.487273 281.033143 
L 398.487273 281.033143 
L 398.487273 281.033143 
L 391.86167 278.619429 
L 385.236067 281.033143 
L 378.610464 254.482286 
L 371.984861 208.621714 
L 365.359258 208.621714 
L 358.733655 184.484571 
L 352.108052 174.829714 
L 345.482449 184.484571 
L 338.856846 167.588571 
L 332.231243 172.416 
L 325.60564 179.657143 
L 318.980037 167.588571 
L 312.354434 165.174857 
L 305.728831 162.761143 
L 299.103228 133.796571 
L 292.477625 131.382857 
L 285.852022 119.314286 
L 279.226419 114.486857 
L 272.600816 90.349714 
L 265.975213 58.971429 
L 259.34961 66.212571 
L 252.724007 66.212571 
L 246.098404 66.212571 
L 239.472801 63.798857 
L 232.847199 63.798857 
L 226.221596 66.212571 
L 219.595993 68.626286 
L 212.97039 63.798857 
L 206.344787 63.798857 
L 199.719184 68.626286 
L 193.093581 66.212571 
L 186.467978 66.212571 
L 179.842375 66.212571 
L 173.216772 63.798857 
L 166.591169 68.626286 
L 159.965566 66.212571 
L 153.339963 63.798857 
L 146.71436 63.798857 
L 140.088757 66.212571 
L 133.463154 63.798857 
L 126.837551 66.212571 
L 120.211948 68.626286 
L 113.586345 66.212571 
L 106.960742 66.212571 
L 100.335139 63.798857 
L 93.709536 63.798857 
L 87.083933 66.212571 
L 80.45833 66.212571 
L 73.832727 66.212571 
z
" style="fill:#8c564b;"/>
   </g>
   <g id="PolyCollection_17">
    <path clip-path="url(#p985f0e9133)" d="M 73.832727 66.212571 
L 73.832727 66.212571 
L 80.45833 66.212571 
L 87.083933 66.212571 
L 93.709536 63.798857 
L 100.335139 63.798857 
L 106.960742 66.212571 
L 113.586345 66.212571 
L 120.211948 68.626286 
L 126.837551 66.212571 
L 133.463154 63.798857 
L 140.088757 66.212571 
L 146.71436 63.798857 
L 153.339963 63.798857 
L 159.965566 66.212571 
L 166.591169 68.626286 
L 173.216772 63.798857 
L 179.842375 66.212571 
L 186.467978 66.212571 
L 193.093581 66.212571 
L 199.719184 68.626286 
L 206.344787 63.798857 
L 212.97039 63.798857 
L 219.595993 68.626286 
L 226.221596 66.212571 
L 232.847199 63.798857 
L 239.472801 63.798857 
L 246.098404 66.212571 
L 252.724007 66.212571 
L 259.34961 66.212571 
L 265.975213 58.971429 
L 272.600816 90.349714 
L 279.226419 114.486857 
L 285.852022 119.314286 
L 292.477625 131.382857 
L 299.103228 133.796571 
L 305.728831 162.761143 
L 312.354434 165.174857 
L 318.980037 167.588571 
L 325.60564 179.657143 
L 332.231243 172.416 
L 338.856846 167.588571 
L 345.482449 184.484571 
L 352.108052 174.829714 
L 358.733655 184.484571 
L 365.359258 208.621714 
L 371.984861 208.621714 
L 378.610464 254.482286 
L 385.236067 281.033143 
L 391.86167 278.619429 
L 398.487273 281.033143 
L 398.487273 266.550857 
L 398.487273 266.550857 
L 391.86167 268.964571 
L 385.236067 266.550857 
L 378.610464 237.586286 
L 371.984861 201.380571 
L 365.359258 198.966857 
L 358.733655 177.243429 
L 352.108052 165.174857 
L 345.482449 177.243429 
L 338.856846 157.933714 
L 332.231243 165.174857 
L 325.60564 172.416 
L 318.980037 157.933714 
L 312.354434 157.933714 
L 305.728831 153.106286 
L 299.103228 126.555429 
L 292.477625 121.728 
L 285.852022 112.073143 
L 279.226419 107.245714 
L 272.600816 83.108571 
L 265.975213 58.971429 
L 259.34961 66.212571 
L 252.724007 66.212571 
L 246.098404 66.212571 
L 239.472801 63.798857 
L 232.847199 63.798857 
L 226.221596 66.212571 
L 219.595993 68.626286 
L 212.97039 63.798857 
L 206.344787 63.798857 
L 199.719184 68.626286 
L 193.093581 66.212571 
L 186.467978 66.212571 
L 179.842375 66.212571 
L 173.216772 63.798857 
L 166.591169 68.626286 
L 159.965566 66.212571 
L 153.339963 63.798857 
L 146.71436 63.798857 
L 140.088757 66.212571 
L 133.463154 63.798857 
L 126.837551 66.212571 
L 120.211948 68.626286 
L 113.586345 66.212571 
L 106.960742 66.212571 
L 100.335139 63.798857 
L 93.709536 63.798857 
L 87.083933 66.212571 
L 80.45833 66.212571 
L 73.832727 66.212571 
z
" style="fill:#e377c2;"/>
   </g>
   <g id="PolyCollection_18">
    <path clip-path="url(#p985f0e9133)" d="M 73.832727 66.212571 
L 73.832727 66.212571 
L 80.45833 66.212571 
L 87.083933 66.212571 
L 93.709536 63.798857 
L 100.335139 63.798857 
L 106.960742 66.212571 
L 113.586345 66.212571 
L 120.211948 68.626286 
L 126.837551 66.212571 
L 133.463154 63.798857 
L 140.088757 66.212571 
L 146.71436 63.798857 
L 153.339963 63.798857 
L 159.965566 66.212571 
L 166.591169 68.626286 
L 173.216772 63.798857 
L 179.842375 66.212571 
L 186.467978 66.212571 
L 193.093581 66.212571 
L 199.719184 68.626286 
L 206.344787 63.798857 
L 212.97039 63.798857 
L 219.595993 68.626286 
L 226.221596 66.212571 
L 232.847199 63.798857 
L 239.472801 63.798857 
L 246.098404 66.212571 
L 252.724007 66.212571 
L 259.34961 66.212571 
L 265.975213 58.971429 
L 272.600816 83.108571 
L 279.226419 107.245714 
L 285.852022 112.073143 
L 292.477625 121.728 
L 299.103228 126.555429 
L 305.728831 153.106286 
L 312.354434 157.933714 
L 318.980037 157.933714 
L 325.60564 172.416 
L 332.231243 165.174857 
L 338.856846 157.933714 
L 345.482449 177.243429 
L 352.108052 165.174857 
L 358.733655 177.243429 
L 365.359258 198.966857 
L 371.984861 201.380571 
L 378.610464 237.586286 
L 385.236067 266.550857 
L 391.86167 268.964571 
L 398.487273 266.550857 
L 398.487273 237.586286 
L 398.487273 237.586286 
L 391.86167 237.586286 
L 385.236067 232.758857 
L 378.610464 206.208 
L 371.984861 177.243429 
L 365.359258 177.243429 
L 358.733655 160.347429 
L 352.108052 150.692571 
L 345.482449 160.347429 
L 338.856846 141.037714 
L 332.231243 145.865143 
L 325.60564 150.692571 
L 318.980037 143.451429 
L 312.354434 150.692571 
L 305.728831 143.451429 
L 299.103228 112.073143 
L 292.477625 114.486857 
L 285.852022 85.522286 
L 279.226419 78.281143 
L 272.600816 71.04 
L 265.975213 58.971429 
L 259.34961 66.212571 
L 252.724007 66.212571 
L 246.098404 66.212571 
L 239.472801 63.798857 
L 232.847199 63.798857 
L 226.221596 66.212571 
L 219.595993 68.626286 
L 212.97039 63.798857 
L 206.344787 63.798857 
L 199.719184 68.626286 
L 193.093581 66.212571 
L 186.467978 66.212571 
L 179.842375 66.212571 
L 173.216772 63.798857 
L 166.591169 68.626286 
L 159.965566 66.212571 
L 153.339963 63.798857 
L 146.71436 63.798857 
L 140.088757 66.212571 
L 133.463154 63.798857 
L 126.837551 66.212571 
L 120.211948 68.626286 
L 113.586345 66.212571 
L 106.960742 66.212571 
L 100.335139 63.798857 
L 93.709536 63.798857 
L 87.083933 66.212571 
L 80.45833 66.212571 
L 73.832727 66.212571 
z
" style="fill:#7f7f7f;"/>
   </g>
   <g id="PolyCollection_19">
    <path clip-path="url(#p985f0e9133)" d="M 73.832727 66.212571 
L 73.832727 66.212571 
L 80.45833 66.212571 
L 87.083933 66.212571 
L 93.709536 63.798857 
L 100.335139 63.798857 
L 106.960742 66.212571 
L 113.586345 66.212571 
L 120.211948 68.626286 
L 126.837551 66.212571 
L 133.463154 63.798857 
L 140.088757 66.212571 
L 146.71436 63.798857 
L 153.339963 63.798857 
L 159.965566 66.212571 
L 166.591169 68.626286 
L 173.216772 63.798857 
L 179.842375 66.212571 
L 186.467978 66.212571 
L 193.093581 66.212571 
L 199.719184 68.626286 
L 206.344787 63.798857 
L 212.97039 63.798857 
L 219.595993 68.626286 
L 226.221596 66.212571 
L 232.847199 63.798857 
L 239.472801 63.798857 
L 246.098404 66.212571 
L 252.724007 66.212571 
L 259.34961 66.212571 
L 265.975213 58.971429 
L 272.600816 71.04 
L 279.226419 78.281143 
L 285.852022 85.522286 
L 292.477625 114.486857 
L 299.103228 112.073143 
L 305.728831 143.451429 
L 312.354434 150.692571 
L 318.980037 143.451429 
L 325.60564 150.692571 
L 332.231243 145.865143 
L 338.856846 141.037714 
L 345.482449 160.347429 
L 352.108052 150.692571 
L 358.733655 160.347429 
L 365.359258 177.243429 
L 371.984861 177.243429 
L 378.610464 206.208 
L 385.236067 232.758857 
L 391.86167 237.586286 
L 398.487273 237.586286 
L 398.487273 206.208 
L 398.487273 206.208 
L 391.86167 211.035429 
L 385.236067 211.035429 
L 378.610464 186.898286 
L 371.984861 155.52 
L 365.359258 160.347429 
L 358.733655 143.451429 
L 352.108052 133.796571 
L 345.482449 145.865143 
L 338.856846 128.969143 
L 332.231243 131.382857 
L 325.60564 136.210286 
L 318.980037 124.141714 
L 312.354434 133.796571 
L 305.728831 121.728 
L 299.103228 92.763429 
L 292.477625 87.936 
L 285.852022 61.385143 
L 279.226419 66.212571 
L 272.600816 68.626286 
L 265.975213 58.971429 
L 259.34961 66.212571 
L 252.724007 66.212571 
L 246.098404 66.212571 
L 239.472801 63.798857 
L 232.847199 63.798857 
L 226.221596 66.212571 
L 219.595993 68.626286 
L 212.97039 63.798857 
L 206.344787 63.798857 
L 199.719184 68.626286 
L 193.093581 66.212571 
L 186.467978 66.212571 
L 179.842375 66.212571 
L 173.216772 63.798857 
L 166.591169 68.626286 
L 159.965566 66.212571 
L 153.339963 63.798857 
L 146.71436 63.798857 
L 140.088757 66.212571 
L 133.463154 63.798857 
L 126.837551 66.212571 
L 120.211948 68.626286 
L 113.586345 66.212571 
L 106.960742 66.212571 
L 100.335139 63.798857 
L 93.709536 63.798857 
L 87.083933 66.212571 
L 80.45833 66.212571 
L 73.832727 66.212571 
z
" style="fill:#bcbd22;"/>
   </g>
   <g id="PolyCollection_20">
    <path clip-path="url(#p985f0e9133)" d="M 73.832727 66.212571 
L 73.832727 66.212571 
L 80.45833 66.212571 
L 87.083933 66.212571 
L 93.709536 63.798857 
L 100.335139 63.798857 
L 106.960742 66.212571 
L 113.586345 66.212571 
L 120.211948 68.626286 
L 126.837551 66.212571 
L 133.463154 63.798857 
L 140.088757 66.212571 
L 146.71436 63.798857 
L 153.339963 63.798857 
L 159.965566 66.212571 
L 166.591169 68.626286 
L 173.216772 63.798857 
L 179.842375 66.212571 
L 186.467978 66.212571 
L 193.093581 66.212571 
L 199.719184 68.626286 
L 206.344787 63.798857 
L 212.97039 63.798857 
L 219.595993 68.626286 
L 226.221596 66.212571 
L 232.847199 63.798857 
L 239.472801 63.798857 
L 246.098404 66.212571 
L 252.724007 66.212571 
L 259.34961 66.212571 
L 265.975213 58.971429 
L 272.600816 68.626286 
L 279.226419 66.212571 
L 285.852022 61.385143 
L 292.477625 87.936 
L 299.103228 92.763429 
L 305.728831 121.728 
L 312.354434 133.796571 
L 318.980037 124.141714 
L 325.60564 136.210286 
L 332.231243 131.382857 
L 338.856846 128.969143 
L 345.482449 145.865143 
L 352.108052 133.796571 
L 358.733655 143.451429 
L 365.359258 160.347429 
L 371.984861 155.52 
L 378.610464 186.898286 
L 385.236067 211.035429 
L 391.86167 211.035429 
L 398.487273 206.208 
L 398.487273 184.484571 
L 398.487273 184.484571 
L 391.86167 191.725714 
L 385.236067 196.553143 
L 378.610464 157.933714 
L 371.984861 136.210286 
L 365.359258 148.278857 
L 358.733655 124.141714 
L 352.108052 121.728 
L 345.482449 124.141714 
L 338.856846 114.486857 
L 332.231243 119.314286 
L 325.60564 119.314286 
L 318.980037 109.659429 
L 312.354434 112.073143 
L 305.728831 100.004571 
L 299.103228 73.453714 
L 292.477625 68.626286 
L 285.852022 61.385143 
L 279.226419 66.212571 
L 272.600816 68.626286 
L 265.975213 58.971429 
L 259.34961 66.212571 
L 252.724007 66.212571 
L 246.098404 66.212571 
L 239.472801 63.798857 
L 232.847199 63.798857 
L 226.221596 66.212571 
L 219.595993 68.626286 
L 212.97039 63.798857 
L 206.344787 63.798857 
L 199.719184 68.626286 
L 193.093581 66.212571 
L 186.467978 66.212571 
L 179.842375 66.212571 
L 173.216772 63.798857 
L 166.591169 68.626286 
L 159.965566 66.212571 
L 153.339963 63.798857 
L 146.71436 63.798857 
L 140.088757 66.212571 
L 133.463154 63.798857 
L 126.837551 66.212571 
L 120.211948 68.626286 
L 113.586345 66.212571 
L 106.960742 66.212571 
L 100.335139 63.798857 
L 93.709536 63.798857 
L 87.083933 66.212571 
L 80.45833 66.212571 
L 73.832727 66.212571 
z
" style="fill:#17becf;"/>
   </g>
   <g id="PolyCollection_21">
    <path clip-path="url(#p985f0e9133)" d="M 73.832727 66.212571 
L 73.832727 66.212571 
L 80.45833 66.212571 
L 87.083933 66.212571 
L 93.709536 63.798857 
L 100.335139 63.798857 
L 106.960742 66.212571 
L 113.586345 66.212571 
L 120.211948 68.626286 
L 126.837551 66.212571 
L 133.463154 63.798857 
L 140.088757 66.212571 
L 146.71436 63.798857 
L 153.339963 63.798857 
L 159.965566 66.212571 
L 166.591169 68.626286 
L 173.216772 63.798857 
L 179.842375 66.212571 
L 186.467978 66.212571 
L 193.093581 66.212571 
L 199.719184 68.626286 
L 206.344787 63.798857 
L 212.97039 63.798857 
L 219.595993 68.626286 
L 226.221596 66.212571 
L 232.847199 63.798857 
L 239.472801 63.798857 
L 246.098404 66.212571 
L 252.724007 66.212571 
L 259.34961 66.212571 
L 265.975213 58.971429 
L 272.600816 68.626286 
L 279.226419 66.212571 
L 285.852022 61.385143 
L 292.477625 68.626286 
L 299.103228 73.453714 
L 305.728831 100.004571 
L 312.354434 112.073143 
L 318.980037 109.659429 
L 325.60564 119.314286 
L 332.231243 119.314286 
L 338.856846 114.486857 
L 345.482449 124.141714 
L 352.108052 121.728 
L 358.733655 124.141714 
L 365.359258 148.278857 
L 371.984861 136.210286 
L 378.610464 157.933714 
L 385.236067 196.553143 
L 391.86167 191.725714 
L 398.487273 184.484571 
L 398.487273 162.761143 
L 398.487273 162.761143 
L 391.86167 172.416 
L 385.236067 184.484571 
L 378.610464 145.865143 
L 371.984861 121.728 
L 365.359258 109.659429 
L 358.733655 107.245714 
L 352.108052 104.832 
L 345.482449 102.418286 
L 338.856846 97.590857 
L 332.231243 100.004571 
L 325.60564 102.418286 
L 318.980037 92.763429 
L 312.354434 92.763429 
L 305.728831 83.108571 
L 299.103228 71.04 
L 292.477625 68.626286 
L 285.852022 61.385143 
L 279.226419 66.212571 
L 272.600816 68.626286 
L 265.975213 58.971429 
L 259.34961 66.212571 
L 252.724007 66.212571 
L 246.098404 66.212571 
L 239.472801 63.798857 
L 232.847199 63.798857 
L 226.221596 66.212571 
L 219.595993 68.626286 
L 212.97039 63.798857 
L 206.344787 63.798857 
L 199.719184 68.626286 
L 193.093581 66.212571 
L 186.467978 66.212571 
L 179.842375 66.212571 
L 173.216772 63.798857 
L 166.591169 68.626286 
L 159.965566 66.212571 
L 153.339963 63.798857 
L 146.71436 63.798857 
L 140.088757 66.212571 
L 133.463154 63.798857 
L 126.837551 66.212571 
L 120.211948 68.626286 
L 113.586345 66.212571 
L 106.960742 66.212571 
L 100.335139 63.798857 
L 93.709536 63.798857 
L 87.083933 66.212571 
L 80.45833 66.212571 
L 73.832727 66.212571 
z
" style="fill:#1f77b4;"/>
   </g>
   <g id="PolyCollection_22">
    <path clip-path="url(#p985f0e9133)" d="M 73.832727 66.212571 
L 73.832727 66.212571 
L 80.45833 66.212571 
L 87.083933 66.212571 
L 93.709536 63.798857 
L 100.335139 63.798857 
L 106.960742 66.212571 
L 113.586345 66.212571 
L 120.211948 68.626286 
L 126.837551 66.212571 
L 133.463154 63.798857 
L 140.088757 66.212571 
L 146.71436 63.798857 
L 153.339963 63.798857 
L 159.965566 66.212571 
L 166.591169 68.626286 
L 173.216772 63.798857 
L 179.842375 66.212571 
L 186.467978 66.212571 
L 193.093581 66.212571 
L 199.719184 68.626286 
L 206.344787 63.798857 
L 212.97039 63.798857 
L 219.595993 68.626286 
L 226.221596 66.212571 
L 232.847199 63.798857 
L 239.472801 63.798857 
L 246.098404 66.212571 
L 252.724007 66.212571 
L 259.34961 66.212571 
L 265.975213 58.971429 
L 272.600816 68.626286 
L 279.226419 66.212571 
L 285.852022 61.385143 
L 292.477625 68.626286 
L 299.103228 71.04 
L 305.728831 83.108571 
L 312.354434 92.763429 
L 318.980037 92.763429 
L 325.60564 102.418286 
L 332.231243 100.004571 
L 338.856846 97.590857 
L 345.482449 102.418286 
L 352.108052 104.832 
L 358.733655 107.245714 
L 365.359258 109.659429 
L 371.984861 121.728 
L 378.610464 145.865143 
L 385.236067 184.484571 
L 391.86167 172.416 
L 398.487273 162.761143 
L 398.487273 136.210286 
L 398.487273 136.210286 
L 391.86167 141.037714 
L 385.236067 162.761143 
L 378.610464 121.728 
L 371.984861 102.418286 
L 365.359258 92.763429 
L 358.733655 95.177143 
L 352.108052 87.936 
L 345.482449 80.694857 
L 338.856846 83.108571 
L 332.231243 83.108571 
L 325.60564 87.936 
L 318.980037 78.281143 
L 312.354434 80.694857 
L 305.728831 66.212571 
L 299.103228 63.798857 
L 292.477625 68.626286 
L 285.852022 61.385143 
L 279.226419 66.212571 
L 272.600816 68.626286 
L 265.975213 58.971429 
L 259.34961 66.212571 
L 252.724007 66.212571 
L 246.098404 66.212571 
L 239.472801 63.798857 
L 232.847199 63.798857 
L 226.221596 66.212571 
L 219.595993 68.626286 
L 212.97039 63.798857 
L 206.344787 63.798857 
L 199.719184 68.626286 
L 193.093581 66.212571 
L 186.467978 66.212571 
L 179.842375 66.212571 
L 173.216772 63.798857 
L 166.591169 68.626286 
L 159.965566 66.212571 
L 153.339963 63.798857 
L 146.71436 63.798857 
L 140.088757 66.212571 
L 133.463154 63.798857 
L 126.837551 66.212571 
L 120.211948 68.626286 
L 113.586345 66.212571 
L 106.960742 66.212571 
L 100.335139 63.798857 
L 93.709536 63.798857 
L 87.083933 66.212571 
L 80.45833 66.212571 
L 73.832727 66.212571 
z
" style="fill:#ff7f0e;"/>
   </g>
   <g id="PolyCollection_23">
    <path clip-path="url(#p985f0e9133)" d="M 73.832727 66.212571 
L 73.832727 66.212571 
L 80.45833 66.212571 
L 87.083933 66.212571 
L 93.709536 63.798857 
L 100.335139 63.798857 
L 106.960742 66.212571 
L 113.586345 66.212571 
L 120.211948 68.626286 
L 126.837551 66.212571 
L 133.463154 63.798857 
L 140.088757 66.212571 
L 146.71436 63.798857 
L 153.339963 63.798857 
L 159.965566 66.212571 
L 166.591169 68.626286 
L 173.216772 63.798857 
L 179.842375 66.212571 
L 186.467978 66.212571 
L 193.093581 66.212571 
L 199.719184 68.626286 
L 206.344787 63.798857 
L 212.97039 63.798857 
L 219.595993 68.626286 
L 226.221596 66.212571 
L 232.847199 63.798857 
L 239.472801 63.798857 
L 246.098404 66.212571 
L 252.724007 66.212571 
L 259.34961 66.212571 
L 265.975213 58.971429 
L 272.600816 68.626286 
L 279.226419 66.212571 
L 285.852022 61.385143 
L 292.477625 68.626286 
L 299.103228 63.798857 
L 305.728831 66.212571 
L 312.354434 80.694857 
L 318.980037 78.281143 
L 325.60564 87.936 
L 332.231243 83.108571 
L 338.856846 83.108571 
L 345.482449 80.694857 
L 352.108052 87.936 
L 358.733655 95.177143 
L 365.359258 92.763429 
L 371.984861 102.418286 
L 378.610464 121.728 
L 385.236067 162.761143 
L 391.86167 141.037714 
L 398.487273 136.210286 
L 398.487273 100.004571 
L 398.487273 100.004571 
L 391.86167 95.177143 
L 385.236067 80.694857 
L 378.610464 100.004571 
L 371.984861 85.522286 
L 365.359258 80.694857 
L 358.733655 78.281143 
L 352.108052 63.798857 
L 345.482449 56.557714 
L 338.856846 58.971429 
L 332.231243 56.557714 
L 325.60564 68.626286 
L 318.980037 54.144 
L 312.354434 54.144 
L 305.728831 56.557714 
L 299.103228 63.798857 
L 292.477625 68.626286 
L 285.852022 61.385143 
L 279.226419 66.212571 
L 272.600816 68.626286 
L 265.975213 58.971429 
L 259.34961 66.212571 
L 252.724007 66.212571 
L 246.098404 66.212571 
L 239.472801 63.798857 
L 232.847199 63.798857 
L 226.221596 66.212571 
L 219.595993 68.626286 
L 212.97039 63.798857 
L 206.344787 63.798857 
L 199.719184 68.626286 
L 193.093581 66.212571 
L 186.467978 66.212571 
L 179.842375 66.212571 
L 173.216772 63.798857 
L 166.591169 68.626286 
L 159.965566 66.212571 
L 153.339963 63.798857 
L 146.71436 63.798857 
L 140.088757 66.212571 
L 133.463154 63.798857 
L 126.837551 66.212571 
L 120.211948 68.626286 
L 113.586345 66.212571 
L 106.960742 66.212571 
L 100.335139 63.798857 
L 93.709536 63.798857 
L 87.083933 66.212571 
L 80.45833 66.212571 
L 73.832727 66.212571 
z
" style="fill:#2ca02c;"/>
   </g>
   <g id="PolyCollection_24">
    <path clip-path="url(#p985f0e9133)" d="M 73.832727 66.212571 
L 73.832727 66.212571 
L 80.45833 66.212571 
L 87.083933 66.212571 
L 93.709536 63.798857 
L 100.335139 63.798857 
L 106.960742 66.212571 
L 113.586345 66.212571 
L 120.211948 68.626286 
L 126.837551 66.212571 
L 133.463154 63.798857 
L 140.088757 66.212571 
L 146.71436 63.798857 
L 153.339963 63.798857 
L 159.965566 66.212571 
L 166.591169 68.626286 
L 173.216772 63.798857 
L 179.842375 66.212571 
L 186.467978 66.212571 
L 193.093581 66.212571 
L 199.719184 68.626286 
L 206.344787 63.798857 
L 212.97039 63.798857 
L 219.595993 68.626286 
L 226.221596 66.212571 
L 232.847199 63.798857 
L 239.472801 63.798857 
L 246.098404 66.212571 
L 252.724007 66.212571 
L 259.34961 66.212571 
L 265.975213 58.971429 
L 272.600816 68.626286 
L 279.226419 66.212571 
L 285.852022 61.385143 
L 292.477625 68.626286 
L 299.103228 63.798857 
L 305.728831 56.557714 
L 312.354434 54.144 
L 318.980037 54.144 
L 325.60564 68.626286 
L 332.231243 56.557714 
L 338.856846 58.971429 
L 345.482449 56.557714 
L 352.108052 63.798857 
L 358.733655 78.281143 
L 365.359258 80.694857 
L 371.984861 85.522286 
L 378.610464 100.004571 
L 385.236067 80.694857 
L 391.86167 95.177143 
L 398.487273 100.004571 
L 398.487273 92.763429 
L 398.487273 92.763429 
L 391.86167 87.936 
L 385.236067 73.453714 
L 378.610464 90.349714 
L 371.984861 80.694857 
L 365.359258 71.04 
L 358.733655 68.626286 
L 352.108052 63.798857 
L 345.482449 56.557714 
L 338.856846 58.971429 
L 332.231243 56.557714 
L 325.60564 68.626286 
L 318.980037 54.144 
L 312.354434 54.144 
L 305.728831 56.557714 
L 299.103228 63.798857 
L 292.477625 68.626286 
L 285.852022 61.385143 
L 279.226419 66.212571 
L 272.600816 68.626286 
L 265.975213 58.971429 
L 259.34961 66.212571 
L 252.724007 66.212571 
L 246.098404 66.212571 
L 239.472801 63.798857 
L 232.847199 63.798857 
L 226.221596 66.212571 
L 219.595993 68.626286 
L 212.97039 63.798857 
L 206.344787 63.798857 
L 199.719184 68.626286 
L 193.093581 66.212571 
L 186.467978 66.212571 
L 179.842375 66.212571 
L 173.216772 63.798857 
L 166.591169 68.626286 
L 159.965566 66.212571 
L 153.339963 63.798857 
L 146.71436 63.798857 
L 140.088757 66.212571 
L 133.463154 63.798857 
L 126.837551 66.212571 
L 120.211948 68.626286 
L 113.586345 66.212571 
L 106.960742 66.212571 
L 100.335139 63.798857 
L 93.709536 63.798857 
L 87.083933 66.212571 
L 80.45833 66.212571 
L 73.832727 66.212571 
z
" style="fill:#d62728;"/>
   </g>
   <g id="PolyCollection_25">
    <path clip-path="url(#p985f0e9133)" d="M 73.832727 66.212571 
L 73.832727 66.212571 
L 80.45833 66.212571 
L 87.083933 66.212571 
L 93.709536 63.798857 
L 100.335139 63.798857 
L 106.960742 66.212571 
L 113.586345 66.212571 
L 120.211948 68.626286 
L 126.837551 66.212571 
L 133.463154 63.798857 
L 140.088757 66.212571 
L 146.71436 63.798857 
L 153.339963 63.798857 
L 159.965566 66.212571 
L 166.591169 68.626286 
L 173.216772 63.798857 
L 179.842375 66.212571 
L 186.467978 66.212571 
L 193.093581 66.212571 
L 199.719184 68.626286 
L 206.344787 63.798857 
L 212.97039 63.798857 
L 219.595993 68.626286 
L 226.221596 66.212571 
L 232.847199 63.798857 
L 239.472801 63.798857 
L 246.098404 66.212571 
L 252.724007 66.212571 
L 259.34961 66.212571 
L 265.975213 58.971429 
L 272.600816 68.626286 
L 279.226419 66.212571 
L 285.852022 61.385143 
L 292.477625 68.626286 
L 299.103228 63.798857 
L 305.728831 56.557714 
L 312.354434 54.144 
L 318.980037 54.144 
L 325.60564 68.626286 
L 332.231243 56.557714 
L 338.856846 58.971429 
L 345.482449 56.557714 
L 352.108052 63.798857 
L 358.733655 68.626286 
L 365.359258 71.04 
L 371.984861 80.694857 
L 378.610464 90.349714 
L 385.236067 73.453714 
L 391.86167 87.936 
L 398.487273 92.763429 
L 398.487273 78.281143 
L 398.487273 78.281143 
L 391.86167 75.867429 
L 385.236067 71.04 
L 378.610464 68.626286 
L 371.984861 66.212571 
L 365.359258 61.385143 
L 358.733655 68.626286 
L 352.108052 63.798857 
L 345.482449 56.557714 
L 338.856846 58.971429 
L 332.231243 56.557714 
L 325.60564 68.626286 
L 318.980037 54.144 
L 312.354434 54.144 
L 305.728831 56.557714 
L 299.103228 63.798857 
L 292.477625 68.626286 
L 285.852022 61.385143 
L 279.226419 66.212571 
L 272.600816 68.626286 
L 265.975213 58.971429 
L 259.34961 66.212571 
L 252.724007 66.212571 
L 246.098404 66.212571 
L 239.472801 63.798857 
L 232.847199 63.798857 
L 226.221596 66.212571 
L 219.595993 68.626286 
L 212.97039 63.798857 
L 206.344787 63.798857 
L 199.719184 68.626286 
L 193.093581 66.212571 
L 186.467978 66.212571 
L 179.842375 66.212571 
L 173.216772 63.798857 
L 166.591169 68.626286 
L 159.965566 66.212571 
L 153.339963 63.798857 
L 146.71436 63.798857 
L 140.088757 66.212571 
L 133.463154 63.798857 
L 126.837551 66.212571 
L 120.211948 68.626286 
L 113.586345 66.212571 
L 106.960742 66.212571 
L 100.335139 63.798857 
L 93.709536 63.798857 
L 87.083933 66.212571 
L 80.45833 66.212571 
L 73.832727 66.212571 
z
" style="fill:#9467bd;"/>
   </g>
   <g id="PolyCollection_26">
    <path clip-path="url(#p985f0e9133)" d="M 73.832727 66.212571 
L 73.832727 66.212571 
L 80.45833 66.212571 
L 87.083933 66.212571 
L 93.709536 63.798857 
L 100.335139 63.798857 
L 106.960742 66.212571 
L 113.586345 66.212571 
L 120.211948 68.626286 
L 126.837551 66.212571 
L 133.463154 63.798857 
L 140.088757 66.212571 
L 146.71436 63.798857 
L 153.339963 63.798857 
L 159.965566 66.212571 
L 166.591169 68.626286 
L 173.216772 63.798857 
L 179.842375 66.212571 
L 186.467978 66.212571 
L 193.093581 66.212571 
L 199.719184 68.626286 
L 206.344787 63.798857 
L 212.97039 63.798857 
L 219.595993 68.626286 
L 226.221596 66.212571 
L 232.847199 63.798857 
L 239.472801 63.798857 
L 246.098404 66.212571 
L 252.724007 66.212571 
L 259.34961 66.212571 
L 265.975213 58.971429 
L 272.600816 68.626286 
L 279.226419 66.212571 
L 285.852022 61.385143 
L 292.477625 68.626286 
L 299.103228 63.798857 
L 305.728831 56.557714 
L 312.354434 54.144 
L 318.980037 54.144 
L 325.60564 68.626286 
L 332.231243 56.557714 
L 338.856846 58.971429 
L 345.482449 56.557714 
L 352.108052 63.798857 
L 358.733655 68.626286 
L 365.359258 61.385143 
L 371.984861 66.212571 
L 378.610464 68.626286 
L 385.236067 71.04 
L 391.86167 75.867429 
L 398.487273 78.281143 
L 398.487273 68.626286 
L 398.487273 68.626286 
L 391.86167 63.798857 
L 385.236067 68.626286 
L 378.610464 68.626286 
L 371.984861 66.212571 
L 365.359258 61.385143 
L 358.733655 68.626286 
L 352.108052 63.798857 
L 345.482449 56.557714 
L 338.856846 58.971429 
L 332.231243 56.557714 
L 325.60564 68.626286 
L 318.980037 54.144 
L 312.354434 54.144 
L 305.728831 56.557714 
L 299.103228 63.798857 
L 292.477625 68.626286 
L 285.852022 61.385143 
L 279.226419 66.212571 
L 272.600816 68.626286 
L 265.975213 58.971429 
L 259.34961 66.212571 
L 252.724007 66.212571 
L 246.098404 66.212571 
L 239.472801 63.798857 
L 232.847199 63.798857 
L 226.221596 66.212571 
L 219.595993 68.626286 
L 212.97039 63.798857 
L 206.344787 63.798857 
L 199.719184 68.626286 
L 193.093581 66.212571 
L 186.467978 66.212571 
L 179.842375 66.212571 
L 173.216772 63.798857 
L 166.591169 68.626286 
L 159.965566 66.212571 
L 153.339963 63.798857 
L 146.71436 63.798857 
L 140.088757 66.212571 
L 133.463154 63.798857 
L 126.837551 66.212571 
L 120.211948 68.626286 
L 113.586345 66.212571 
L 106.960742 66.212571 
L 100.335139 63.798857 
L 93.709536 63.798857 
L 87.083933 66.212571 
L 80.45833 66.212571 
L 73.832727 66.212571 
z
" style="fill:#8c564b;"/>
   </g>
   <g id="PolyCollection_27">
    <path clip-path="url(#p985f0e9133)" d="M 73.832727 66.212571 
L 73.832727 66.212571 
L 80.45833 66.212571 
L 87.083933 66.212571 
L 93.709536 63.798857 
L 100.335139 63.798857 
L 106.960742 66.212571 
L 113.586345 66.212571 
L 120.211948 68.626286 
L 126.837551 66.212571 
L 133.463154 63.798857 
L 140.088757 66.212571 
L 146.71436 63.798857 
L 153.339963 63.798857 
L 159.965566 66.212571 
L 166.591169 68.626286 
L 173.216772 63.798857 
L 179.842375 66.212571 
L 186.467978 66.212571 
L 193.093581 66.212571 
L 199.719184 68.626286 
L 206.344787 63.798857 
L 212.97039 63.798857 
L 219.595993 68.626286 
L 226.221596 66.212571 
L 232.847199 63.798857 
L 239.472801 63.798857 
L 246.098404 66.212571 
L 252.724007 66.212571 
L 259.34961 66.212571 
L 265.975213 58.971429 
L 272.600816 68.626286 
L 279.226419 66.212571 
L 285.852022 61.385143 
L 292.477625 68.626286 
L 299.103228 63.798857 
L 305.728831 56.557714 
L 312.354434 54.144 
L 318.980037 54.144 
L 325.60564 68.626286 
L 332.231243 56.557714 
L 338.856846 58.971429 
L 345.482449 56.557714 
L 352.108052 63.798857 
L 358.733655 68.626286 
L 365.359258 61.385143 
L 371.984861 66.212571 
L 378.610464 68.626286 
L 385.236067 68.626286 
L 391.86167 63.798857 
L 398.487273 68.626286 
L 398.487273 58.971429 
L 398.487273 58.971429 
L 391.86167 58.971429 
L 385.236067 68.626286 
L 378.610464 68.626286 
L 371.984861 66.212571 
L 365.359258 61.385143 
L 358.733655 68.626286 
L 352.108052 63.798857 
L 345.482449 56.557714 
L 338.856846 58.971429 
L 332.231243 56.557714 
L 325.60564 68.626286 
L 318.980037 54.144 
L 312.354434 54.144 
L 305.728831 56.557714 
L 299.103228 63.798857 
L 292.477625 68.626286 
L 285.852022 61.385143 
L 279.226419 66.212571 
L 272.600816 68.626286 
L 265.975213 58.971429 
L 259.34961 66.212571 
L 252.724007 66.212571 
L 246.098404 66.212571 
L 239.472801 63.798857 
L 232.847199 63.798857 
L 226.221596 66.212571 
L 219.595993 68.626286 
L 212.97039 63.798857 
L 206.344787 63.798857 
L 199.719184 68.626286 
L 193.093581 66.212571 
L 186.467978 66.212571 
L 179.842375 66.212571 
L 173.216772 63.798857 
L 166.591169 68.626286 
L 159.965566 66.212571 
L 153.339963 63.798857 
L 146.71436 63.798857 
L 140.088757 66.212571 
L 133.463154 63.798857 
L 126.837551 66.212571 
L 120.211948 68.626286 
L 113.586345 66.212571 
L 106.960742 66.212571 
L 100.335139 63.798857 
L 93.709536 63.798857 
L 87.083933 66.212571 
L 80.45833 66.212571 
L 73.832727 66.212571 
z
" style="fill:#e377c2;"/>
   </g>
   <g id="matplotlib.axis_1">
    <g id="xtick_1">
     <g id="line2d_1">
      <defs>
       <path d="M 0 0 
L 0 3.5 
" id="ma76b0a8cba" style="stroke:#000000;stroke-width:0.8;"/>
      </defs>
      <g>
       <use style="stroke:#000000;stroke-width:0.8;" x="73.832727" xlink:href="#ma76b0a8cba" y="307.584"/>
      </g>
     </g>
     <g id="text_1">
      <!-- 0 -->
      <defs>
       <path d="M 31.78125 66.40625 
Q 24.171875 66.40625 20.328125 58.90625 
Q 16.5 51.421875 16.5 36.375 
Q 16.5 21.390625 20.328125 13.890625 
Q 24.171875 6.390625 31.78125 6.390625 
Q 39.453125 6.390625 43.28125 13.890625 
Q 47.125 21.390625 47.125 36.375 
Q 47.125 51.421875 43.28125 58.90625 
Q 39.453125 66.40625 31.78125 66.40625 
z
M 31.78125 74.21875 
Q 44.046875 74.21875 50.515625 64.515625 
Q 56.984375 54.828125 56.984375 36.375 
Q 56.984375 17.96875 50.515625 8.265625 
Q 44.046875 -1.421875 31.78125 -1.421875 
Q 19.53125 -1.421875 13.0625 8.265625 
Q 6.59375 17.96875 6.59375 36.375 
Q 6.59375 54.828125 13.0625 64.515625 
Q 19.53125 74.21875 31.78125 74.21875 
z
" id="DejaVuSans-48"/>
      </defs>
      <g transform="translate(70.651477 322.182437)scale(0.1 -0.1)">
       <use xlink:href="#DejaVuSans-48"/>
      </g>
     </g>
    </g>
    <g id="xtick_2">
     <g id="line2d_2">
      <g>
       <use style="stroke:#000000;stroke-width:0.8;" x="140.088757" xlink:href="#ma76b0a8cba" y="307.584"/>
      </g>
     </g>
     <g id="text_2">
      <!-- 10 -->
      <defs>
       <path d="M 12.40625 8.296875 
L 28.515625 8.296875 
L 28.515625 63.921875 
L 10.984375 60.40625 
L 10.984375 69.390625 
L 28.421875 72.90625 
L 38.28125 72.90625 
L 38.28125 8.296875 
L 54.390625 8.296875 
L 54.390625 0 
L 12.40625 0 
z
" id="DejaVuSans-49"/>
      </defs>
      <g transform="translate(133.726257 322.182437)scale(0.1 -0.1)">
       <use xlink:href="#DejaVuSans-49"/>
       <use x="63.623047" xlink:href="#DejaVuSans-48"/>
      </g>
     </g>
    </g>
    <g id="xtick_3">
     <g id="line2d_3">
      <g>
       <use style="stroke:#000000;stroke-width:0.8;" x="206.344787" xlink:href="#ma76b0a8cba" y="307.584"/>
      </g>
     </g>
     <g id="text_3">
      <!-- 20 -->
      <defs>
       <path d="M 19.1875 8.296875 
L 53.609375 8.296875 
L 53.609375 0 
L 7.328125 0 
L 7.328125 8.296875 
Q 12.9375 14.109375 22.625 23.890625 
Q 32.328125 33.6875 34.8125 36.53125 
Q 39.546875 41.84375 41.421875 45.53125 
Q 43.3125 49.21875 43.3125 52.78125 
Q 43.3125 58.59375 39.234375 62.25 
Q 35.15625 65.921875 28.609375 65.921875 
Q 23.96875 65.921875 18.8125 64.3125 
Q 13.671875 62.703125 7.8125 59.421875 
L 7.8125 69.390625 
Q 13.765625 71.78125 18.9375 73 
Q 24.125 74.21875 28.421875 74.21875 
Q 39.75 74.21875 46.484375 68.546875 
Q 53.21875 62.890625 53.21875 53.421875 
Q 53.21875 48.921875 51.53125 44.890625 
Q 49.859375 40.875 45.40625 35.40625 
Q 44.1875 33.984375 37.640625 27.21875 
Q 31.109375 20.453125 19.1875 8.296875 
z
" id="DejaVuSans-50"/>
      </defs>
      <g transform="translate(199.982287 322.182437)scale(0.1 -0.1)">
       <use xlink:href="#DejaVuSans-50"/>
       <use x="63.623047" xlink:href="#DejaVuSans-48"/>
      </g>
     </g>
    </g>
    <g id="xtick_4">
     <g id="line2d_4">
      <g>
       <use style="stroke:#000000;stroke-width:0.8;" x="272.600816" xlink:href="#ma76b0a8cba" y="307.584"/>
      </g>
     </g>
     <g id="text_4">
      <!-- 30 -->
      <defs>
       <path d="M 40.578125 39.3125 
Q 47.65625 37.796875 51.625 33 
Q 55.609375 28.21875 55.609375 21.1875 
Q 55.609375 10.40625 48.1875 4.484375 
Q 40.765625 -1.421875 27.09375 -1.421875 
Q 22.515625 -1.421875 17.65625 -0.515625 
Q 12.796875 0.390625 7.625 2.203125 
L 7.625 11.71875 
Q 11.71875 9.328125 16.59375 8.109375 
Q 21.484375 6.890625 26.8125 6.890625 
Q 36.078125 6.890625 40.9375 10.546875 
Q 45.796875 14.203125 45.796875 21.1875 
Q 45.796875 27.640625 41.28125 31.265625 
Q 36.765625 34.90625 28.71875 34.90625 
L 20.21875 34.90625 
L 20.21875 43.015625 
L 29.109375 43.015625 
Q 36.375 43.015625 40.234375 45.921875 
Q 44.09375 48.828125 44.09375 54.296875 
Q 44.09375 59.90625 40.109375 62.90625 
Q 36.140625 65.921875 28.71875 65.921875 
Q 24.65625 65.921875 20.015625 65.03125 
Q 15.375 64.15625 9.8125 62.3125 
L 9.8125 71.09375 
Q 15.4375 72.65625 20.34375 73.4375 
Q 25.25 74.21875 29.59375 74.21875 
Q 40.828125 74.21875 47.359375 69.109375 
Q 53.90625 64.015625 53.90625 55.328125 
Q 53.90625 49.265625 50.4375 45.09375 
Q 46.96875 40.921875 40.578125 39.3125 
z
" id="DejaVuSans-51"/>
      </defs>
      <g transform="translate(266.238316 322.182437)scale(0.1 -0.1)">
       <use xlink:href="#DejaVuSans-51"/>
       <use x="63.623047" xlink:href="#DejaVuSans-48"/>
      </g>
     </g>
    </g>
    <g id="xtick_5">
     <g id="line2d_5">
      <g>
       <use style="stroke:#000000;stroke-width:0.8;" x="338.856846" xlink:href="#ma76b0a8cba" y="307.584"/>
      </g>
     </g>
     <g id="text_5">
      <!-- 40 -->
      <defs>
       <path d="M 37.796875 64.3125 
L 12.890625 25.390625 
L 37.796875 25.390625 
z
M 35.203125 72.90625 
L 47.609375 72.90625 
L 47.609375 25.390625 
L 58.015625 25.390625 
L 58.015625 17.1875 
L 47.609375 17.1875 
L 47.609375 0 
L 37.796875 0 
L 37.796875 17.1875 
L 4.890625 17.1875 
L 4.890625 26.703125 
z
" id="DejaVuSans-52"/>
      </defs>
      <g transform="translate(332.494346 322.182437)scale(0.1 -0.1)">
       <use xlink:href="#DejaVuSans-52"/>
       <use x="63.623047" xlink:href="#DejaVuSans-48"/>
      </g>
     </g>
    </g>
    <g id="xtick_6">
     <g id="line2d_6">
      <g>
       <use style="stroke:#000000;stroke-width:0.8;" x="405.112876" xlink:href="#ma76b0a8cba" y="307.584"/>
      </g>
     </g>
     <g id="text_6">
      <!-- 50 -->
      <defs>
       <path d="M 10.796875 72.90625 
L 49.515625 72.90625 
L 49.515625 64.59375 
L 19.828125 64.59375 
L 19.828125 46.734375 
Q 21.96875 47.46875 24.109375 47.828125 
Q 26.265625 48.1875 28.421875 48.1875 
Q 40.625 48.1875 47.75 41.5 
Q 54.890625 34.8125 54.890625 23.390625 
Q 54.890625 11.625 47.5625 5.09375 
Q 40.234375 -1.421875 26.90625 -1.421875 
Q 22.3125 -1.421875 17.546875 -0.640625 
Q 12.796875 0.140625 7.71875 1.703125 
L 7.71875 11.625 
Q 12.109375 9.234375 16.796875 8.0625 
Q 21.484375 6.890625 26.703125 6.890625 
Q 35.15625 6.890625 40.078125 11.328125 
Q 45.015625 15.765625 45.015625 23.390625 
Q 45.015625 31 40.078125 35.4375 
Q 35.15625 39.890625 26.703125 39.890625 
Q 22.75 39.890625 18.8125 39.015625 
Q 14.890625 38.140625 10.796875 36.28125 
z
" id="DejaVuSans-53"/>
      </defs>
      <g transform="translate(398.750376 322.182437)scale(0.1 -0.1)">
       <use xlink:href="#DejaVuSans-53"/>
       <use x="63.623047" xlink:href="#DejaVuSans-48"/>
      </g>
     </g>
    </g>
    <g id="text_7">
     <!-- Generations -->
     <defs>
      <path d="M 59.515625 10.40625 
L 59.515625 29.984375 
L 43.40625 29.984375 
L 43.40625 38.09375 
L 69.28125 38.09375 
L 69.28125 6.78125 
Q 63.578125 2.734375 56.6875 0.65625 
Q 49.8125 -1.421875 42 -1.421875 
Q 24.90625 -1.421875 15.25 8.5625 
Q 5.609375 18.5625 5.609375 36.375 
Q 5.609375 54.25 15.25 64.234375 
Q 24.90625 74.21875 42 74.21875 
Q 49.125 74.21875 55.546875 72.453125 
Q 61.96875 70.703125 67.390625 67.28125 
L 67.390625 56.78125 
Q 61.921875 61.421875 55.765625 63.765625 
Q 49.609375 66.109375 42.828125 66.109375 
Q 29.4375 66.109375 22.71875 58.640625 
Q 16.015625 51.171875 16.015625 36.375 
Q 16.015625 21.625 22.71875 14.15625 
Q 29.4375 6.6875 42.828125 6.6875 
Q 48.046875 6.6875 52.140625 7.59375 
Q 56.25 8.5 59.515625 10.40625 
z
" id="DejaVuSans-71"/>
      <path d="M 56.203125 29.59375 
L 56.203125 25.203125 
L 14.890625 25.203125 
Q 15.484375 15.921875 20.484375 11.0625 
Q 25.484375 6.203125 34.421875 6.203125 
Q 39.59375 6.203125 44.453125 7.46875 
Q 49.3125 8.734375 54.109375 11.28125 
L 54.109375 2.78125 
Q 49.265625 0.734375 44.1875 -0.34375 
Q 39.109375 -1.421875 33.890625 -1.421875 
Q 20.796875 -1.421875 13.15625 6.1875 
Q 5.515625 13.8125 5.515625 26.8125 
Q 5.515625 40.234375 12.765625 48.109375 
Q 20.015625 56 32.328125 56 
Q 43.359375 56 49.78125 48.890625 
Q 56.203125 41.796875 56.203125 29.59375 
z
M 47.21875 32.234375 
Q 47.125 39.59375 43.09375 43.984375 
Q 39.0625 48.390625 32.421875 48.390625 
Q 24.90625 48.390625 20.390625 44.140625 
Q 15.875 39.890625 15.1875 32.171875 
z
" id="DejaVuSans-101"/>
      <path d="M 54.890625 33.015625 
L 54.890625 0 
L 45.90625 0 
L 45.90625 32.71875 
Q 45.90625 40.484375 42.875 44.328125 
Q 39.84375 48.1875 33.796875 48.1875 
Q 26.515625 48.1875 22.3125 43.546875 
Q 18.109375 38.921875 18.109375 30.90625 
L 18.109375 0 
L 9.078125 0 
L 9.078125 54.6875 
L 18.109375 54.6875 
L 18.109375 46.1875 
Q 21.34375 51.125 25.703125 53.5625 
Q 30.078125 56 35.796875 56 
Q 45.21875 56 50.046875 50.171875 
Q 54.890625 44.34375 54.890625 33.015625 
z
" id="DejaVuSans-110"/>
      <path d="M 41.109375 46.296875 
Q 39.59375 47.171875 37.8125 47.578125 
Q 36.03125 48 33.890625 48 
Q 26.265625 48 22.1875 43.046875 
Q 18.109375 38.09375 18.109375 28.8125 
L 18.109375 0 
L 9.078125 0 
L 9.078125 54.6875 
L 18.109375 54.6875 
L 18.109375 46.1875 
Q 20.953125 51.171875 25.484375 53.578125 
Q 30.03125 56 36.53125 56 
Q 37.453125 56 38.578125 55.875 
Q 39.703125 55.765625 41.0625 55.515625 
z
" id="DejaVuSans-114"/>
      <path d="M 34.28125 27.484375 
Q 23.390625 27.484375 19.1875 25 
Q 14.984375 22.515625 14.984375 16.5 
Q 14.984375 11.71875 18.140625 8.90625 
Q 21.296875 6.109375 26.703125 6.109375 
Q 34.1875 6.109375 38.703125 11.40625 
Q 43.21875 16.703125 43.21875 25.484375 
L 43.21875 27.484375 
z
M 52.203125 31.203125 
L 52.203125 0 
L 43.21875 0 
L 43.21875 8.296875 
Q 40.140625 3.328125 35.546875 0.953125 
Q 30.953125 -1.421875 24.3125 -1.421875 
Q 15.921875 -1.421875 10.953125 3.296875 
Q 6 8.015625 6 15.921875 
Q 6 25.140625 12.171875 29.828125 
Q 18.359375 34.515625 30.609375 34.515625 
L 43.21875 34.515625 
L 43.21875 35.40625 
Q 43.21875 41.609375 39.140625 45 
Q 35.0625 48.390625 27.6875 48.390625 
Q 23 48.390625 18.546875 47.265625 
Q 14.109375 46.140625 10.015625 43.890625 
L 10.015625 52.203125 
Q 14.9375 54.109375 19.578125 55.046875 
Q 24.21875 56 28.609375 56 
Q 40.484375 56 46.34375 49.84375 
Q 52.203125 43.703125 52.203125 31.203125 
z
" id="DejaVuSans-97"/>
      <path d="M 18.3125 70.21875 
L 18.3125 54.6875 
L 36.8125 54.6875 
L 36.8125 47.703125 
L 18.3125 47.703125 
L 18.3125 18.015625 
Q 18.3125 11.328125 20.140625 9.421875 
Q 21.96875 7.515625 27.59375 7.515625 
L 36.8125 7.515625 
L 36.8125 0 
L 27.59375 0 
Q 17.1875 0 13.234375 3.875 
Q 9.28125 7.765625 9.28125 18.015625 
L 9.28125 47.703125 
L 2.6875 47.703125 
L 2.6875 54.6875 
L 9.28125 54.6875 
L 9.28125 70.21875 
z
" id="DejaVuSans-116"/>
      <path d="M 9.421875 54.6875 
L 18.40625 54.6875 
L 18.40625 0 
L 9.421875 0 
z
M 9.421875 75.984375 
L 18.40625 75.984375 
L 18.40625 64.59375 
L 9.421875 64.59375 
z
" id="DejaVuSans-105"/>
      <path d="M 30.609375 48.390625 
Q 23.390625 48.390625 19.1875 42.75 
Q 14.984375 37.109375 14.984375 27.296875 
Q 14.984375 17.484375 19.15625 11.84375 
Q 23.34375 6.203125 30.609375 6.203125 
Q 37.796875 6.203125 41.984375 11.859375 
Q 46.1875 17.53125 46.1875 27.296875 
Q 46.1875 37.015625 41.984375 42.703125 
Q 37.796875 48.390625 30.609375 48.390625 
z
M 30.609375 56 
Q 42.328125 56 49.015625 48.375 
Q 55.71875 40.765625 55.71875 27.296875 
Q 55.71875 13.875 49.015625 6.21875 
Q 42.328125 -1.421875 30.609375 -1.421875 
Q 18.84375 -1.421875 12.171875 6.21875 
Q 5.515625 13.875 5.515625 27.296875 
Q 5.515625 40.765625 12.171875 48.375 
Q 18.84375 56 30.609375 56 
z
" id="DejaVuSans-111"/>
      <path d="M 44.28125 53.078125 
L 44.28125 44.578125 
Q 40.484375 46.53125 36.375 47.5 
Q 32.28125 48.484375 27.875 48.484375 
Q 21.1875 48.484375 17.84375 46.4375 
Q 14.5 44.390625 14.5 40.28125 
Q 14.5 37.15625 16.890625 35.375 
Q 19.28125 33.59375 26.515625 31.984375 
L 29.59375 31.296875 
Q 39.15625 29.25 43.1875 25.515625 
Q 47.21875 21.78125 47.21875 15.09375 
Q 47.21875 7.46875 41.1875 3.015625 
Q 35.15625 -1.421875 24.609375 -1.421875 
Q 20.21875 -1.421875 15.453125 -0.5625 
Q 10.6875 0.296875 5.421875 2 
L 5.421875 11.28125 
Q 10.40625 8.6875 15.234375 7.390625 
Q 20.0625 6.109375 24.8125 6.109375 
Q 31.15625 6.109375 34.5625 8.28125 
Q 37.984375 10.453125 37.984375 14.40625 
Q 37.984375 18.0625 35.515625 20.015625 
Q 33.0625 21.96875 24.703125 23.78125 
L 21.578125 24.515625 
Q 13.234375 26.265625 9.515625 29.90625 
Q 5.8125 33.546875 5.8125 39.890625 
Q 5.8125 47.609375 11.28125 51.796875 
Q 16.75 56 26.8125 56 
Q 31.78125 56 36.171875 55.265625 
Q 40.578125 54.546875 44.28125 53.078125 
z
" id="DejaVuSans-115"/>
     </defs>
     <g transform="translate(205.662344 335.860562)scale(0.1 -0.1)">
      <use xlink:href="#DejaVuSans-71"/>
      <use x="77.490234" xlink:href="#DejaVuSans-101"/>
      <use x="139.013672" xlink:href="#DejaVuSans-110"/>
      <use x="202.392578" xlink:href="#DejaVuSans-101"/>
      <use x="263.916016" xlink:href="#DejaVuSans-114"/>
      <use x="305.029297" xlink:href="#DejaVuSans-97"/>
      <use x="366.308594" xlink:href="#DejaVuSans-116"/>
      <use x="405.517578" xlink:href="#DejaVuSans-105"/>
      <use x="433.300781" xlink:href="#DejaVuSans-111"/>
      <use x="494.482422" xlink:href="#DejaVuSans-110"/>
      <use x="557.861328" xlink:href="#DejaVuSans-115"/>
     </g>
    </g>
   </g>
   <g id="matplotlib.axis_2">
    <g id="ytick_1">
     <g id="line2d_7">
      <defs>
       <path d="M 0 0 
L -3.5 0 
" id="m6bd355b985" style="stroke:#000000;stroke-width:0.8;"/>
      </defs>
      <g>
       <use style="stroke:#000000;stroke-width:0.8;" x="57.6" xlink:href="#m6bd355b985" y="307.584"/>
      </g>
     </g>
     <g id="text_8">
      <!-- 0 -->
      <g transform="translate(44.2375 311.383219)scale(0.1 -0.1)">
       <use xlink:href="#DejaVuSans-48"/>
      </g>
     </g>
    </g>
    <g id="ytick_2">
     <g id="line2d_8">
      <g>
       <use style="stroke:#000000;stroke-width:0.8;" x="57.6" xlink:href="#m6bd355b985" y="259.309714"/>
      </g>
     </g>
     <g id="text_9">
      <!-- 20 -->
      <g transform="translate(37.875 263.108933)scale(0.1 -0.1)">
       <use xlink:href="#DejaVuSans-50"/>
       <use x="63.623047" xlink:href="#DejaVuSans-48"/>
      </g>
     </g>
    </g>
    <g id="ytick_3">
     <g id="line2d_9">
      <g>
       <use style="stroke:#000000;stroke-width:0.8;" x="57.6" xlink:href="#m6bd355b985" y="211.035429"/>
      </g>
     </g>
     <g id="text_10">
      <!-- 40 -->
      <g transform="translate(37.875 214.834647)scale(0.1 -0.1)">
       <use xlink:href="#DejaVuSans-52"/>
       <use x="63.623047" xlink:href="#DejaVuSans-48"/>
      </g>
     </g>
    </g>
    <g id="ytick_4">
     <g id="line2d_10">
      <g>
       <use style="stroke:#000000;stroke-width:0.8;" x="57.6" xlink:href="#m6bd355b985" y="162.761143"/>
      </g>
     </g>
     <g id="text_11">
      <!-- 60 -->
      <defs>
       <path d="M 33.015625 40.375 
Q 26.375 40.375 22.484375 35.828125 
Q 18.609375 31.296875 18.609375 23.390625 
Q 18.609375 15.53125 22.484375 10.953125 
Q 26.375 6.390625 33.015625 6.390625 
Q 39.65625 6.390625 43.53125 10.953125 
Q 47.40625 15.53125 47.40625 23.390625 
Q 47.40625 31.296875 43.53125 35.828125 
Q 39.65625 40.375 33.015625 40.375 
z
M 52.59375 71.296875 
L 52.59375 62.3125 
Q 48.875 64.0625 45.09375 64.984375 
Q 41.3125 65.921875 37.59375 65.921875 
Q 27.828125 65.921875 22.671875 59.328125 
Q 17.53125 52.734375 16.796875 39.40625 
Q 19.671875 43.65625 24.015625 45.921875 
Q 28.375 48.1875 33.59375 48.1875 
Q 44.578125 48.1875 50.953125 41.515625 
Q 57.328125 34.859375 57.328125 23.390625 
Q 57.328125 12.15625 50.6875 5.359375 
Q 44.046875 -1.421875 33.015625 -1.421875 
Q 20.359375 -1.421875 13.671875 8.265625 
Q 6.984375 17.96875 6.984375 36.375 
Q 6.984375 53.65625 15.1875 63.9375 
Q 23.390625 74.21875 37.203125 74.21875 
Q 40.921875 74.21875 44.703125 73.484375 
Q 48.484375 72.75 52.59375 71.296875 
z
" id="DejaVuSans-54"/>
      </defs>
      <g transform="translate(37.875 166.560362)scale(0.1 -0.1)">
       <use xlink:href="#DejaVuSans-54"/>
       <use x="63.623047" xlink:href="#DejaVuSans-48"/>
      </g>
     </g>
    </g>
    <g id="ytick_5">
     <g id="line2d_11">
      <g>
       <use style="stroke:#000000;stroke-width:0.8;" x="57.6" xlink:href="#m6bd355b985" y="114.486857"/>
      </g>
     </g>
     <g id="text_12">
      <!-- 80 -->
      <defs>
       <path d="M 31.78125 34.625 
Q 24.75 34.625 20.71875 30.859375 
Q 16.703125 27.09375 16.703125 20.515625 
Q 16.703125 13.921875 20.71875 10.15625 
Q 24.75 6.390625 31.78125 6.390625 
Q 38.8125 6.390625 42.859375 10.171875 
Q 46.921875 13.96875 46.921875 20.515625 
Q 46.921875 27.09375 42.890625 30.859375 
Q 38.875 34.625 31.78125 34.625 
z
M 21.921875 38.8125 
Q 15.578125 40.375 12.03125 44.71875 
Q 8.5 49.078125 8.5 55.328125 
Q 8.5 64.0625 14.71875 69.140625 
Q 20.953125 74.21875 31.78125 74.21875 
Q 42.671875 74.21875 48.875 69.140625 
Q 55.078125 64.0625 55.078125 55.328125 
Q 55.078125 49.078125 51.53125 44.71875 
Q 48 40.375 41.703125 38.8125 
Q 48.828125 37.15625 52.796875 32.3125 
Q 56.78125 27.484375 56.78125 20.515625 
Q 56.78125 9.90625 50.3125 4.234375 
Q 43.84375 -1.421875 31.78125 -1.421875 
Q 19.734375 -1.421875 13.25 4.234375 
Q 6.78125 9.90625 6.78125 20.515625 
Q 6.78125 27.484375 10.78125 32.3125 
Q 14.796875 37.15625 21.921875 38.8125 
z
M 18.3125 54.390625 
Q 18.3125 48.734375 21.84375 45.5625 
Q 25.390625 42.390625 31.78125 42.390625 
Q 38.140625 42.390625 41.71875 45.5625 
Q 45.3125 48.734375 45.3125 54.390625 
Q 45.3125 60.0625 41.71875 63.234375 
Q 38.140625 66.40625 31.78125 66.40625 
Q 25.390625 66.40625 21.84375 63.234375 
Q 18.3125 60.0625 18.3125 54.390625 
z
" id="DejaVuSans-56"/>
      </defs>
      <g transform="translate(37.875 118.286076)scale(0.1 -0.1)">
       <use xlink:href="#DejaVuSans-56"/>
       <use x="63.623047" xlink:href="#DejaVuSans-48"/>
      </g>
     </g>
    </g>
    <g id="ytick_6">
     <g id="line2d_12">
      <g>
       <use style="stroke:#000000;stroke-width:0.8;" x="57.6" xlink:href="#m6bd355b985" y="66.212571"/>
      </g>
     </g>
     <g id="text_13">
      <!-- 100 -->
      <g transform="translate(31.5125 70.01179)scale(0.1 -0.1)">
       <use xlink:href="#DejaVuSans-49"/>
       <use x="63.623047" xlink:href="#DejaVuSans-48"/>
       <use x="127.246094" xlink:href="#DejaVuSans-48"/>
      </g>
     </g>
    </g>
    <g id="text_14">
     <!-- Size per Species -->
     <defs>
      <path d="M 53.515625 70.515625 
L 53.515625 60.890625 
Q 47.90625 63.578125 42.921875 64.890625 
Q 37.9375 66.21875 33.296875 66.21875 
Q 25.25 66.21875 20.875 63.09375 
Q 16.5 59.96875 16.5 54.203125 
Q 16.5 49.359375 19.40625 46.890625 
Q 22.3125 44.4375 30.421875 42.921875 
L 36.375 41.703125 
Q 47.40625 39.59375 52.65625 34.296875 
Q 57.90625 29 57.90625 20.125 
Q 57.90625 9.515625 50.796875 4.046875 
Q 43.703125 -1.421875 29.984375 -1.421875 
Q 24.8125 -1.421875 18.96875 -0.25 
Q 13.140625 0.921875 6.890625 3.21875 
L 6.890625 13.375 
Q 12.890625 10.015625 18.65625 8.296875 
Q 24.421875 6.59375 29.984375 6.59375 
Q 38.421875 6.59375 43.015625 9.90625 
Q 47.609375 13.234375 47.609375 19.390625 
Q 47.609375 24.75 44.3125 27.78125 
Q 41.015625 30.8125 33.5 32.328125 
L 27.484375 33.5 
Q 16.453125 35.6875 11.515625 40.375 
Q 6.59375 45.0625 6.59375 53.421875 
Q 6.59375 63.09375 13.40625 68.65625 
Q 20.21875 74.21875 32.171875 74.21875 
Q 37.3125 74.21875 42.625 73.28125 
Q 47.953125 72.359375 53.515625 70.515625 
z
" id="DejaVuSans-83"/>
      <path d="M 5.515625 54.6875 
L 48.1875 54.6875 
L 48.1875 46.484375 
L 14.40625 7.171875 
L 48.1875 7.171875 
L 48.1875 0 
L 4.296875 0 
L 4.296875 8.203125 
L 38.09375 47.515625 
L 5.515625 47.515625 
z
" id="DejaVuSans-122"/>
      <path id="DejaVuSans-32"/>
      <path d="M 18.109375 8.203125 
L 18.109375 -20.796875 
L 9.078125 -20.796875 
L 9.078125 54.6875 
L 18.109375 54.6875 
L 18.109375 46.390625 
Q 20.953125 51.265625 25.265625 53.625 
Q 29.59375 56 35.59375 56 
Q 45.5625 56 51.78125 48.09375 
Q 58.015625 40.1875 58.015625 27.296875 
Q 58.015625 14.40625 51.78125 6.484375 
Q 45.5625 -1.421875 35.59375 -1.421875 
Q 29.59375 -1.421875 25.265625 0.953125 
Q 20.953125 3.328125 18.109375 8.203125 
z
M 48.6875 27.296875 
Q 48.6875 37.203125 44.609375 42.84375 
Q 40.53125 48.484375 33.40625 48.484375 
Q 26.265625 48.484375 22.1875 42.84375 
Q 18.109375 37.203125 18.109375 27.296875 
Q 18.109375 17.390625 22.1875 11.75 
Q 26.265625 6.109375 33.40625 6.109375 
Q 40.53125 6.109375 44.609375 11.75 
Q 48.6875 17.390625 48.6875 27.296875 
z
" id="DejaVuSans-112"/>
      <path d="M 48.78125 52.59375 
L 48.78125 44.1875 
Q 44.96875 46.296875 41.140625 47.34375 
Q 37.3125 48.390625 33.40625 48.390625 
Q 24.65625 48.390625 19.8125 42.84375 
Q 14.984375 37.3125 14.984375 27.296875 
Q 14.984375 17.28125 19.8125 11.734375 
Q 24.65625 6.203125 33.40625 6.203125 
Q 37.3125 6.203125 41.140625 7.25 
Q 44.96875 8.296875 48.78125 10.40625 
L 48.78125 2.09375 
Q 45.015625 0.34375 40.984375 -0.53125 
Q 36.96875 -1.421875 32.421875 -1.421875 
Q 20.0625 -1.421875 12.78125 6.34375 
Q 5.515625 14.109375 5.515625 27.296875 
Q 5.515625 40.671875 12.859375 48.328125 
Q 20.21875 56 33.015625 56 
Q 37.15625 56 41.109375 55.140625 
Q 45.0625 54.296875 48.78125 52.59375 
z
" id="DejaVuSans-99"/>
     </defs>
     <g transform="translate(25.432812 215.520969)rotate(-90)scale(0.1 -0.1)">
      <use xlink:href="#DejaVuSans-83"/>
      <use x="63.476562" xlink:href="#DejaVuSans-105"/>
      <use x="91.259766" xlink:href="#DejaVuSans-122"/>
      <use x="143.75" xlink:href="#DejaVuSans-101"/>
      <use x="205.273438" xlink:href="#DejaVuSans-32"/>
      <use x="237.060547" xlink:href="#DejaVuSans-112"/>
      <use x="300.537109" xlink:href="#DejaVuSans-101"/>
      <use x="362.060547" xlink:href="#DejaVuSans-114"/>
      <use x="403.173828" xlink:href="#DejaVuSans-32"/>
      <use x="434.960938" xlink:href="#DejaVuSans-83"/>
      <use x="498.4375" xlink:href="#DejaVuSans-112"/>
      <use x="561.914062" xlink:href="#DejaVuSans-101"/>
      <use x="623.4375" xlink:href="#DejaVuSans-99"/>
      <use x="678.417969" xlink:href="#DejaVuSans-105"/>
      <use x="706.201172" xlink:href="#DejaVuSans-101"/>
      <use x="767.724609" xlink:href="#DejaVuSans-115"/>
     </g>
    </g>
   </g>
   <g id="patch_3">
    <path d="M 57.6 307.584 
L 57.6 41.472 
" style="fill:none;stroke:#000000;stroke-linecap:square;stroke-linejoin:miter;stroke-width:0.8;"/>
   </g>
   <g id="patch_4">
    <path d="M 414.72 307.584 
L 414.72 41.472 
" style="fill:none;stroke:#000000;stroke-linecap:square;stroke-linejoin:miter;stroke-width:0.8;"/>
   </g>
   <g id="patch_5">
    <path d="M 57.6 307.584 
L 414.72 307.584 
" style="fill:none;stroke:#000000;stroke-linecap:square;stroke-linejoin:miter;stroke-width:0.8;"/>
   </g>
   <g id="patch_6">
    <path d="M 57.6 41.472 
L 414.72 41.472 
" style="fill:none;stroke:#000000;stroke-linecap:square;stroke-linejoin:miter;stroke-width:0.8;"/>
   </g>
   <g id="text_15">
    <!-- Speciation -->
    <g transform="translate(204.714375 35.472)scale(0.12 -0.12)">
     <use xlink:href="#DejaVuSans-83"/>
     <use x="63.476562" xlink:href="#DejaVuSans-112"/>
     <use x="126.953125" xlink:href="#DejaVuSans-101"/>
     <use x="188.476562" xlink:href="#DejaVuSans-99"/>
     <use x="243.457031" xlink:href="#DejaVuSans-105"/>
     <use x="271.240234" xlink:href="#DejaVuSans-97"/>
     <use x="332.519531" xlink:href="#DejaVuSans-116"/>
     <use x="371.728516" xlink:href="#DejaVuSans-105"/>
     <use x="399.511719" xlink:href="#DejaVuSans-111"/>
     <use x="460.693359" xlink:href="#DejaVuSans-110"/>
    </g>
   </g>
  </g>
 </g>
 <defs>
  <clipPath id="p985f0e9133">
   <rect height="266.112" width="357.12" x="57.6" y="41.472"/>
  </clipPath>
 </defs>
</svg>
