<?xml version="1.0" encoding="UTF-8" standalone="no"?>
<!DOCTYPE svg PUBLIC "-//W3C//DTD SVG 1.1//EN"
 "http://www.w3.org/Graphics/SVG/1.1/DTD/svg11.dtd">
<!-- Generated by graphviz version 2.40.1 (20161225.0304)
 -->
<!-- Title: %3 Pages: 1 -->
<svg width="134pt" height="92pt"
 viewBox="0.00 0.00 133.70 91.70" xmlns="http://www.w3.org/2000/svg" xmlns:xlink="http://www.w3.org/1999/xlink">
<g id="graph0" class="graph" transform="scale(1 1) rotate(0) translate(4 87.6985)">
<title>%3</title>
<polygon fill="#ffffff" stroke="transparent" points="-4,4 -4,-87.6985 129.6985,-87.6985 129.6985,4 -4,4"/>
<!-- &#45;1 -->
<g id="node1" class="node">
<title>&#45;1</title>
<polygon fill="#d3d3d3" stroke="#000000" points="53.8492,-83.6985 29.8492,-83.6985 29.8492,-65.6985 53.8492,-65.6985 53.8492,-83.6985"/>
<text text-anchor="middle" x="41.8492" y="-72.4985" font-family="Times,serif" font-size="9.00" fill="#000000">&#45;1</text>
</g>
<!-- 0 -->
<g id="node3" class="node">
<title>0</title>
<ellipse fill="#add8e6" stroke="#000000" cx="14.8492" cy="-14.8492" rx="14.7" ry="14.7"/>
<text text-anchor="middle" x="14.8492" y="-12.6492" font-family="Times,serif" font-size="9.00" fill="#000000">0</text>
</g>
<!-- &#45;1&#45;&gt;0 -->
<g id="edge1" class="edge">
<title>&#45;1&#45;&gt;0</title>
<path fill="none" stroke="#ff0000" stroke-width=".3542" d="M37.7485,-65.6087C34.4293,-58.2511 29.605,-47.5575 25.2396,-37.8809"/>
<polygon fill="#ff0000" stroke="#ff0000" stroke-width=".3542" points="28.4024,-36.3805 21.0998,-28.7044 22.0217,-39.2591 28.4024,-36.3805"/>
</g>
<!-- 1 -->
<g id="node4" class="node">
<title>1</title>
<ellipse fill="#add8e6" stroke="#000000" cx="62.8492" cy="-14.8492" rx="14.7" ry="14.7"/>
<text text-anchor="middle" x="62.8492" y="-12.6492" font-family="Times,serif" font-size="9.00" fill="#000000">1</text>
</g>
<!-- &#45;1&#45;&gt;1 -->
<g id="edge2" class="edge">
<title>&#45;1&#45;&gt;1</title>
<path fill="none" stroke="#00ff00" stroke-width=".2506" d="M45.0387,-65.6087C47.5328,-58.5004 51.1195,-48.2785 54.4215,-38.868"/>
<polygon fill="#00ff00" stroke="#00ff00" stroke-width=".2506" points="57.8192,-39.7557 57.8276,-29.1609 51.214,-37.438 57.8192,-39.7557"/>
</g>
<!-- 2 -->
<g id="node5" class="node">
<title>2</title>
<ellipse fill="#add8e6" stroke="#000000" cx="110.8492" cy="-14.8492" rx="14.7" ry="14.7"/>
<text text-anchor="middle" x="110.8492" y="-12.6492" font-family="Times,serif" font-size="9.00" fill="#000000">2</text>
</g>
<!-- &#45;1&#45;&gt;2 -->
<g id="edge3" class="edge">
<title>&#45;1&#45;&gt;2</title>
<path fill="none" stroke="#00ff00" stroke-width=".1177" d="M52.3289,-65.6087C62.72,-56.5956 78.8826,-42.5765 91.5914,-31.5531"/>
<polygon fill="#00ff00" stroke="#00ff00" stroke-width=".1177" points="94.0878,-34.021 99.3487,-24.8245 89.5012,-28.733 94.0878,-34.021"/>
</g>
<!-- &#45;2 -->
<g id="node2" class="node">
<title>&#45;2</title>
<polygon fill="#d3d3d3" stroke="#000000" points="95.8492,-83.6985 71.8492,-83.6985 71.8492,-65.6985 95.8492,-65.6985 95.8492,-83.6985"/>
<text text-anchor="middle" x="83.8492" y="-72.4985" font-family="Times,serif" font-size="9.00" fill="#000000">&#45;2</text>
</g>
<!-- &#45;2&#45;&gt;0 -->
<g id="edge4" class="edge">
<title>&#45;2&#45;&gt;0</title>
<path fill="none" stroke="#00ff00" stroke-width=".1733" d="M73.3696,-65.6087C62.9785,-56.5956 46.8159,-42.5765 34.1071,-31.5531"/>
<polygon fill="#00ff00" stroke="#00ff00" stroke-width=".1733" points="36.1973,-28.733 26.3497,-24.8245 31.6106,-34.021 36.1973,-28.733"/>
</g>
<!-- &#45;2&#45;&gt;1 -->
<g id="edge5" class="edge">
<title>&#45;2&#45;&gt;1</title>
<path fill="none" stroke="#00ff00" stroke-width=".224" d="M80.6598,-65.6087C78.1656,-58.5004 74.5789,-48.2785 71.277,-38.868"/>
<polygon fill="#00ff00" stroke="#00ff00" stroke-width=".224" points="74.4845,-37.438 67.8709,-29.1609 67.8793,-39.7557 74.4845,-37.438"/>
</g>
<!-- &#45;2&#45;&gt;2 -->
<g id="edge6" class="edge">
<title>&#45;2&#45;&gt;2</title>
<path fill="none" stroke="#ff0000" stroke-width=".217" d="M87.95,-65.6087C91.2692,-58.2511 96.0935,-47.5575 100.4589,-37.8809"/>
<polygon fill="#ff0000" stroke="#ff0000" stroke-width=".217" points="103.6768,-39.2591 104.5987,-28.7044 97.296,-36.3805 103.6768,-39.2591"/>
</g>
</g>
</svg>
